<svg width="48" height="48" viewBox="0 0 48 48" fill="none" xmlns="http://www.w3.org/2000/svg">
<path d="M29.6645 23.2173C29.5282 23.0243 29.3012 22.8994 29.0628 22.8994C28.5064 22.8994 19.1967 22.8994 18.9697 22.8994C18.7312 22.8994 18.5042 23.0243 18.3679 23.2173L14.6781 32.1978C14.5646 32.4703 14.5078 32.7541 14.5078 33.0379V33.9121C14.5078 34.3095 14.8371 34.6387 15.2344 34.6387H32.7866C33.184 34.6387 33.5133 34.3095 33.5133 33.9121V33.0379C33.5133 32.7541 33.4565 32.4703 33.343 32.1978L29.6645 23.2173ZM24.0673 33.0947C21.6604 33.0947 19.7076 31.1419 19.7076 28.735C19.7076 26.3281 21.6604 24.3753 24.0673 24.3753C26.4742 24.3753 28.427 26.3281 28.427 28.735C28.427 31.1306 26.4742 33.0947 24.0673 33.0947Z" fill="#C5CAE6"/>
<path d="M13.0547 19.2667C13.0547 19.664 13.3839 19.9933 13.7813 19.9933H16.6877C17.0851 19.9933 17.4144 19.664 17.4144 19.2667V18.54H13.0547V19.2667Z" fill="#C5CAE6"/>
<path d="M26.247 20.7198C26.247 20.3224 25.9178 19.9932 25.5204 19.9932H22.5118C22.1144 19.9932 21.7852 20.3224 21.7852 20.7198V21.4464H26.247V20.7198Z" fill="#C5CAE6"/>
<path d="M24.0221 0C10.7842 0 0.0439453 10.7289 0.0439453 23.9782C0.0439453 37.2275 10.7728 47.9564 24.0221 47.9564C37.2714 47.9564 48.0003 37.2275 48.0003 23.9782C48.0003 10.7289 37.2601 0 24.0221 0ZM34.9781 33.9123C34.9781 35.1158 34.0017 36.0922 32.7982 36.0922H15.246C14.0426 36.0922 13.0662 35.1158 13.0662 33.9123V33.0381C13.0662 32.5613 13.157 32.0845 13.35 31.6417L17.0626 22.6044C17.2783 22.0935 18.0389 21.4464 18.9813 21.4464H20.3437V20.7198C20.3437 19.5163 21.32 18.54 22.5235 18.54H25.5321C26.7356 18.54 27.712 19.5163 27.712 20.7198V21.4464H29.0744C29.835 21.4464 30.5503 21.8551 30.9477 22.5023C30.9931 22.5704 30.7546 22.0027 34.717 31.6417C34.8986 32.0845 34.9894 32.5499 34.9894 33.0381V33.9123H34.9781ZM36.4313 19.2666C36.4313 20.47 35.4549 21.4464 34.2515 21.4464H31.345C30.1416 21.4464 29.1652 20.47 29.1652 19.2666V17.8133C29.1652 17.416 28.8359 17.0867 28.4386 17.0867H19.6171C19.2197 17.0867 18.8904 17.416 18.8904 17.8133V19.2666C18.8904 20.47 17.9141 21.4464 16.7106 21.4464H13.7814C12.578 21.4464 11.6016 20.47 11.6016 19.2666V17.8133C11.6016 14.203 14.5421 11.2625 18.1525 11.2625H29.8918C33.5021 11.2625 36.4427 14.203 36.4427 17.8133V19.2666H36.4313Z" fill="#C5CAE6"/>
<path d="M24.0676 25.8174C22.4668 25.8174 21.1611 27.123 21.1611 28.7238C21.1611 30.3246 22.4668 31.6303 24.0676 31.6303C25.6684 31.6303 26.974 30.3246 26.974 28.7238C26.974 27.123 25.6684 25.8174 24.0676 25.8174ZM24.0676 30.1771C23.2615 30.1771 22.6144 29.5299 22.6144 28.7238C22.6144 27.9177 23.2615 27.2706 24.0676 27.2706C24.8737 27.2706 25.5208 27.9177 25.5208 28.7238C25.5208 29.5299 24.8737 30.1771 24.0676 30.1771Z" fill="#C5CAE6"/>
<path d="M30.6182 19.2667C30.6182 19.664 30.9474 19.9933 31.3448 19.9933H34.2512C34.6486 19.9933 34.9778 19.664 34.9778 19.2667V18.54H30.6182V19.2667Z" fill="#C5CAE6"/>
<path d="M29.8915 12.7275H18.1522C15.5863 12.7275 13.4633 14.6235 13.1113 17.0872H17.5505C17.8457 16.2357 18.6631 15.634 19.6054 15.634H28.4269C29.3806 15.634 30.1867 16.2471 30.4819 17.0872H34.921C34.5691 14.6235 32.446 12.7275 29.8915 12.7275Z" fill="#C5CAE6"/>
</svg>
