<svg width="50" height="112" viewBox="0 0 50 112" fill="none" xmlns="http://www.w3.org/2000/svg">
<g id="Group 1000001518">
<g id="Group">
<path id="Vector" d="M31.6645 23.2173C31.5282 23.0243 31.3012 22.8994 31.0628 22.8994C30.5064 22.8994 21.1967 22.8994 20.9697 22.8994C20.7312 22.8994 20.5042 23.0243 20.3679 23.2173L16.6781 32.1978C16.5646 32.4703 16.5078 32.7541 16.5078 33.0379V33.9121C16.5078 34.3095 16.8371 34.6387 17.2344 34.6387H34.7866C35.184 34.6387 35.5133 34.3095 35.5133 33.9121V33.0379C35.5133 32.7541 35.4565 32.4703 35.343 32.1978L31.6645 23.2173ZM26.0673 33.0947C23.6604 33.0947 21.7076 31.1419 21.7076 28.735C21.7076 26.3281 23.6604 24.3753 26.0673 24.3753C28.4742 24.3753 30.427 26.3281 30.427 28.735C30.427 31.1306 28.4742 33.0947 26.0673 33.0947Z" fill="#C5CAE6"/>
<path id="Vector_2" d="M15.0547 19.2667C15.0547 19.664 15.3839 19.9933 15.7813 19.9933H18.6877C19.0851 19.9933 19.4144 19.664 19.4144 19.2667V18.54H15.0547V19.2667Z" fill="#C5CAE6"/>
<path id="Vector_3" d="M28.247 20.7198C28.247 20.3224 27.9178 19.9932 27.5204 19.9932H24.5118C24.1144 19.9932 23.7852 20.3224 23.7852 20.7198V21.4464H28.247V20.7198Z" fill="#C5CAE6"/>
<path id="Vector_4" d="M26.0221 0C12.7842 0 2.04395 10.7289 2.04395 23.9782C2.04395 37.2275 12.7728 47.9564 26.0221 47.9564C39.2714 47.9564 50.0003 37.2275 50.0003 23.9782C50.0003 10.7289 39.2601 0 26.0221 0ZM36.9781 33.9123C36.9781 35.1158 36.0017 36.0922 34.7982 36.0922H17.246C16.0426 36.0922 15.0662 35.1158 15.0662 33.9123V33.0381C15.0662 32.5613 15.157 32.0845 15.35 31.6417L19.0626 22.6044C19.2783 22.0935 20.0389 21.4464 20.9813 21.4464H22.3437V20.7198C22.3437 19.5163 23.32 18.54 24.5235 18.54H27.5321C28.7356 18.54 29.712 19.5163 29.712 20.7198V21.4464H31.0744C31.835 21.4464 32.5503 21.8551 32.9477 22.5023C32.9931 22.5704 32.7546 22.0027 36.717 31.6417C36.8986 32.0845 36.9894 32.5499 36.9894 33.0381V33.9123H36.9781ZM38.4313 19.2666C38.4313 20.47 37.4549 21.4464 36.2515 21.4464H33.345C32.1416 21.4464 31.1652 20.47 31.1652 19.2666V17.8133C31.1652 17.416 30.8359 17.0867 30.4386 17.0867H21.6171C21.2197 17.0867 20.8904 17.416 20.8904 17.8133V19.2666C20.8904 20.47 19.9141 21.4464 18.7106 21.4464H15.7814C14.578 21.4464 13.6016 20.47 13.6016 19.2666V17.8133C13.6016 14.203 16.5421 11.2625 20.1525 11.2625H31.8918C35.5021 11.2625 38.4427 14.203 38.4427 17.8133V19.2666H38.4313Z" fill="#C5CAE6"/>
<path id="Vector_5" d="M26.0676 25.8174C24.4668 25.8174 23.1611 27.123 23.1611 28.7238C23.1611 30.3246 24.4668 31.6303 26.0676 31.6303C27.6684 31.6303 28.974 30.3246 28.974 28.7238C28.974 27.123 27.6684 25.8174 26.0676 25.8174ZM26.0676 30.1771C25.2615 30.1771 24.6144 29.5299 24.6144 28.7238C24.6144 27.9177 25.2615 27.2706 26.0676 27.2706C26.8737 27.2706 27.5208 27.9177 27.5208 28.7238C27.5208 29.5299 26.8737 30.1771 26.0676 30.1771Z" fill="#C5CAE6"/>
<path id="Vector_6" d="M32.6182 19.2667C32.6182 19.664 32.9474 19.9933 33.3448 19.9933H36.2512C36.6486 19.9933 36.9778 19.664 36.9778 19.2667V18.54H32.6182V19.2667Z" fill="#C5CAE6"/>
<path id="Vector_7" d="M31.8915 12.7275H20.1522C17.5863 12.7275 15.4633 14.6235 15.1113 17.0872H19.5505C19.8457 16.2357 20.6631 15.634 21.6054 15.634H30.4269C31.3806 15.634 32.1867 16.2471 32.4819 17.0872H36.921C36.5691 14.6235 34.446 12.7275 31.8915 12.7275Z" fill="#C5CAE6"/>
</g>
<g id="Group_2">
<path id="Vector_8" d="M14.8611 80.5283L12.3066 82.5946L14.8611 84.8766V80.5283Z" fill="#C5CAE6"/>
<path id="Vector_9" d="M31.312 86.3072V75.9189H16.4619V86.3072L23.887 92.9262L31.312 86.3072ZM28.8597 81.6978H25.4537C25.011 81.6978 24.659 81.3458 24.659 80.903C24.659 80.4603 25.011 80.1083 25.4537 80.1083H28.8597C29.3025 80.1083 29.6545 80.4603 29.6545 80.903C29.6545 81.3458 29.2912 81.6978 28.8597 81.6978ZM29.6545 83.5597C29.6545 84.0025 29.3025 84.3545 28.8597 84.3545H25.4537C25.011 84.3545 24.659 84.0025 24.659 83.5597C24.659 83.1169 25.011 82.765 25.4537 82.765H28.8597C29.2912 82.765 29.6545 83.1283 29.6545 83.5597ZM18.9142 77.4743H28.8484C29.2912 77.4743 29.6431 77.8263 29.6431 78.2691C29.6431 78.7119 29.2912 79.0638 28.8484 79.0638H18.9142C18.4714 79.0638 18.1195 78.7119 18.1195 78.2691C18.1195 77.8263 18.4828 77.4743 18.9142 77.4743ZM18.9142 80.1083H22.3202C22.763 80.1083 23.115 80.4603 23.115 80.903C23.115 81.3458 22.763 81.6978 22.3202 81.6978H18.9142C18.4714 81.6978 18.1195 81.3458 18.1195 80.903C18.1195 80.4603 18.4828 80.1083 18.9142 80.1083ZM18.9142 82.765H22.3202C22.763 82.765 23.115 83.1169 23.115 83.5597C23.115 84.0025 22.763 84.3545 22.3202 84.3545H18.9142C18.4714 84.3545 18.1195 84.0025 18.1195 83.5597C18.1195 83.1283 18.4828 82.765 18.9142 82.765ZM18.1195 86.2277C18.1195 85.785 18.4714 85.433 18.9142 85.433H28.8484C29.2912 85.433 29.6431 85.785 29.6431 86.2277C29.6431 86.6705 29.2912 87.0225 28.8484 87.0225H18.9142C18.4828 87.0225 18.1195 86.6592 18.1195 86.2277Z" fill="#C5CAE6"/>
<path id="Vector_10" d="M23.9781 73.1836L22.5703 74.3189H25.3632L23.9781 73.1836Z" fill="#C5CAE6"/>
<path id="Vector_11" d="M11.876 84.3428V95.8664L17.9841 89.7924L11.876 84.3428Z" fill="#C5CAE6"/>
<path id="Vector_12" d="M32.9131 80.4941V84.8765L35.4789 82.5945L32.9131 80.4941Z" fill="#C5CAE6"/>
<path id="Vector_13" d="M23.9782 63.499C10.7289 63.499 0 74.2393 0 87.4772C0 100.715 10.7289 111.455 23.9782 111.455C37.2275 111.455 47.9564 100.727 47.9564 87.4772C47.9564 74.2279 37.2161 63.499 23.9782 63.499ZM37.5 97.786C37.5 98.2288 37.148 98.5808 36.7053 98.5808H11.0695C10.6267 98.5808 10.2747 98.2288 10.2747 97.786V82.5726C10.2747 82.3342 10.3883 82.1071 10.5699 81.9482L14.8615 78.4854V75.1135C14.8615 74.6707 15.2134 74.3187 15.6562 74.3187H20.0159L23.4673 71.5372C23.7625 71.2987 24.1825 71.2987 24.4777 71.5372L27.8724 74.3187H32.0958C32.5386 74.3187 32.8905 74.6707 32.8905 75.1135V78.4286L37.1934 81.9482C37.3751 82.0957 37.4886 82.3228 37.4886 82.5612V97.786H37.5Z" fill="#C5CAE6"/>
<path id="Vector_14" d="M24.4208 94.5839C24.2732 94.7201 24.0802 94.7882 23.8872 94.7882C23.6942 94.7882 23.5126 94.7201 23.3536 94.5839L19.1756 90.8486L13.0107 96.9681H34.775L28.6102 90.8486L24.4208 94.5839Z" fill="#C5CAE6"/>
<path id="Vector_15" d="M35.8991 95.8664V84.3428L29.791 89.7924L35.8991 95.8664Z" fill="#C5CAE6"/>
</g>
</g>
</svg>
