<svg width="48" height="49" viewBox="0 0 48 49" fill="none" xmlns="http://www.w3.org/2000/svg">
<path d="M14.8611 17.5283L12.3066 19.5946L14.8611 21.8766V17.5283Z" fill="#C5CAE6"/>
<path d="M31.312 23.3072V12.9189H16.4619V23.3072L23.887 29.9262L31.312 23.3072ZM28.8597 18.6978H25.4537C25.011 18.6978 24.659 18.3458 24.659 17.903C24.659 17.4603 25.011 17.1083 25.4537 17.1083H28.8597C29.3025 17.1083 29.6545 17.4603 29.6545 17.903C29.6545 18.3458 29.2912 18.6978 28.8597 18.6978ZM29.6545 20.5597C29.6545 21.0025 29.3025 21.3545 28.8597 21.3545H25.4537C25.011 21.3545 24.659 21.0025 24.659 20.5597C24.659 20.1169 25.011 19.765 25.4537 19.765H28.8597C29.2912 19.765 29.6545 20.1283 29.6545 20.5597ZM18.9142 14.4743H28.8484C29.2912 14.4743 29.6431 14.8263 29.6431 15.2691C29.6431 15.7119 29.2912 16.0638 28.8484 16.0638H18.9142C18.4714 16.0638 18.1195 15.7119 18.1195 15.2691C18.1195 14.8263 18.4828 14.4743 18.9142 14.4743ZM18.9142 17.1083H22.3202C22.763 17.1083 23.115 17.4603 23.115 17.903C23.115 18.3458 22.763 18.6978 22.3202 18.6978H18.9142C18.4714 18.6978 18.1195 18.3458 18.1195 17.903C18.1195 17.4603 18.4828 17.1083 18.9142 17.1083ZM18.9142 19.765H22.3202C22.763 19.765 23.115 20.1169 23.115 20.5597C23.115 21.0025 22.763 21.3545 22.3202 21.3545H18.9142C18.4714 21.3545 18.1195 21.0025 18.1195 20.5597C18.1195 20.1283 18.4828 19.765 18.9142 19.765ZM18.1195 23.2277C18.1195 22.785 18.4714 22.433 18.9142 22.433H28.8484C29.2912 22.433 29.6431 22.785 29.6431 23.2277C29.6431 23.6705 29.2912 24.0225 28.8484 24.0225H18.9142C18.4828 24.0225 18.1195 23.6592 18.1195 23.2277Z" fill="#C5CAE6"/>
<path d="M23.9781 10.1836L22.5703 11.3189H25.3632L23.9781 10.1836Z" fill="#C5CAE6"/>
<path d="M11.876 21.3428V32.8664L17.9841 26.7924L11.876 21.3428Z" fill="#C5CAE6"/>
<path d="M32.9131 17.4941V21.8765L35.4789 19.5945L32.9131 17.4941Z" fill="#C5CAE6"/>
<path d="M23.9782 0.499023C10.7289 0.499023 0 11.2393 0 24.4772C0 37.7152 10.7289 48.4554 23.9782 48.4554C37.2275 48.4554 47.9564 37.7265 47.9564 24.4772C47.9564 11.2279 37.2161 0.499023 23.9782 0.499023ZM37.5 34.786C37.5 35.2288 37.148 35.5807 36.7052 35.5807H11.0695C10.6267 35.5807 10.2747 35.2288 10.2747 34.786V19.5726C10.2747 19.3342 10.3883 19.1071 10.5699 18.9482L14.8615 15.4854V12.1135C14.8615 11.6707 15.2134 11.3187 15.6562 11.3187H20.0159L23.4673 8.53716C23.7625 8.29874 24.1825 8.29874 24.4777 8.53716L27.8724 11.3187H32.0958C32.5386 11.3187 32.8905 11.6707 32.8905 12.1135V15.4286L37.1934 18.9482C37.3751 19.0957 37.4886 19.3228 37.4886 19.5612V34.786H37.5Z" fill="#C5CAE6"/>
<path d="M24.4208 31.5839C24.2732 31.7201 24.0802 31.7882 23.8872 31.7882C23.6942 31.7882 23.5126 31.7201 23.3536 31.5839L19.1756 27.8486L13.0107 33.9681H34.775L28.6102 27.8486L24.4208 31.5839Z" fill="#C5CAE6"/>
<path d="M35.8991 32.8664V21.3428L29.791 26.7924L35.8991 32.8664Z" fill="#C5CAE6"/>
</svg>
