<svg width="153" height="138" viewBox="0 0 153 138" fill="none" xmlns="http://www.w3.org/2000/svg">
<g id="Group 335">
<g id="Rectangle 110">
<rect width="153" height="137.7" rx="10" fill="#E19809"/>
<rect width="153" height="137.7" rx="10" fill="url(#paint0_radial_1_8275)" fill-opacity="0.7"/>
</g>
<path id="Vector" d="M39.1001 114.75H115.6C117.854 114.75 120.016 113.854 121.611 112.26C123.205 110.666 124.1 108.504 124.1 106.25V34C124.1 31.7457 123.205 29.5837 121.611 27.9896C120.016 26.3955 117.854 25.5 115.6 25.5H90.1001V54.2513C90.1013 54.8427 89.9333 55.4222 89.6161 55.9214C89.2989 56.4205 88.8456 56.8187 88.3096 57.0688C87.7736 57.3189 87.1774 57.4106 86.591 57.3331C86.0046 57.2556 85.4527 57.0121 85.0001 56.6313L82.0676 54.1875C80.7395 53.0831 79.0667 52.4785 77.3395 52.4785C75.6122 52.4785 73.9394 53.0831 72.6114 54.1875L69.7001 56.6525C69.2462 57.0345 68.6922 57.2783 68.1039 57.3551C67.5156 57.4319 66.9176 57.3383 66.3809 57.0856C65.8441 56.8329 65.3911 56.4316 65.0754 55.9292C64.7598 55.4268 64.5949 54.8445 64.6001 54.2513V25.5H39.1001C36.8458 25.5 34.6837 26.3955 33.0897 27.9896C31.4956 29.5837 30.6001 31.7457 30.6001 34V106.25C30.6001 108.504 31.4956 110.666 33.0897 112.26C34.6837 113.854 36.8458 114.75 39.1001 114.75ZM49.7251 95.625H66.4914C67.536 95.5843 68.561 95.9169 69.3826 96.5633C70.2043 97.2097 70.7688 98.1276 70.9751 99.1525C71.0813 99.7679 71.0506 100.399 70.8852 101.001C70.7197 101.604 70.4235 102.162 70.0178 102.637C69.612 103.112 69.1066 103.491 68.5375 103.748C67.9684 104.005 67.3496 104.134 66.7251 104.125H49.9589C48.9142 104.166 47.8892 103.833 47.0676 103.187C46.2459 102.54 45.6814 101.622 45.4751 100.598C45.3689 99.9821 45.3996 99.3508 45.565 98.7486C45.7305 98.1463 46.0267 97.588 46.4324 97.1133C46.8382 96.6385 47.3436 96.259 47.9127 96.0018C48.4818 95.7445 49.1006 95.6159 49.7251 95.625Z" fill="#461597"/>
</g>
<defs>
<radialGradient id="paint0_radial_1_8275" cx="0" cy="0" r="1" gradientUnits="userSpaceOnUse" gradientTransform="translate(36.975 28.05) rotate(45) scale(102.778 114.198)">
<stop stop-color="white"/>
<stop offset="0.654854" stop-color="white" stop-opacity="0.645125"/>
<stop offset="1" stop-color="white" stop-opacity="0.49"/>
</radialGradient>
</defs>
</svg>
