<svg width="89" height="80" viewBox="0 0 89 80" fill="none" xmlns="http://www.w3.org/2000/svg">
<g id="Group 335">
<g id="Rectangle 110">
<rect width="88.8889" height="80" rx="10" fill="#E19809"/>
<rect width="88.8889" height="80" rx="10" fill="url(#paint0_radial_189_3566)" fill-opacity="0.7"/>
</g>
<path id="Vector" d="M22.7156 66.6663H67.1601C68.4698 66.6663 69.7258 66.146 70.6519 65.2199C71.578 64.2938 72.0983 63.0377 72.0983 61.728V19.7527C72.0983 18.443 71.578 17.1869 70.6519 16.2608C69.7258 15.3347 68.4698 14.8145 67.1601 14.8145H52.3452V31.5182C52.3459 31.8618 52.2484 32.1984 52.0641 32.4884C51.8798 32.7785 51.6164 33.0097 51.305 33.1551C50.9936 33.3004 50.6472 33.3536 50.3065 33.3086C49.9659 33.2636 49.6452 33.1221 49.3823 32.9009L47.6786 31.4811C46.907 30.8395 45.9352 30.4883 44.9317 30.4883C43.9282 30.4883 42.9563 30.8395 42.1848 31.4811L40.4934 32.9132C40.2297 33.1352 39.9078 33.2768 39.5661 33.3214C39.2243 33.366 38.8769 33.3117 38.565 33.1648C38.2532 33.018 37.99 32.7849 37.8066 32.493C37.6232 32.2011 37.5274 31.8628 37.5304 31.5182V14.8145H22.7156C21.4059 14.8145 20.1498 15.3347 19.2237 16.2608C18.2976 17.1869 17.7773 18.443 17.7773 19.7527V61.728C17.7773 63.0377 18.2976 64.2938 19.2237 65.2199C20.1498 66.146 21.4059 66.6663 22.7156 66.6663ZM28.8885 55.5552H38.6292C39.2361 55.5315 39.8316 55.7248 40.309 56.1003C40.7863 56.4759 41.1143 57.0091 41.2341 57.6046C41.2959 57.9621 41.278 58.3289 41.1819 58.6788C41.0858 59.0286 40.9137 59.353 40.678 59.6288C40.4422 59.9047 40.1486 60.1251 39.8179 60.2746C39.4873 60.424 39.1278 60.4988 38.765 60.4935H29.0243C28.4173 60.5171 27.8218 60.3239 27.3445 59.9483C26.8671 59.5728 26.5392 59.0395 26.4193 58.4441C26.3576 58.0865 26.3754 57.7198 26.4716 57.3699C26.5677 57.02 26.7398 56.6956 26.9755 56.4198C27.2112 56.144 27.5049 55.9235 27.8355 55.7741C28.1661 55.6246 28.5257 55.5499 28.8885 55.5552Z" fill="#150B36"/>
</g>
<defs>
<radialGradient id="paint0_radial_189_3566" cx="0" cy="0" r="1" gradientUnits="userSpaceOnUse" gradientTransform="translate(21.4815 16.2963) rotate(45) scale(59.7112 66.3458)">
<stop stop-color="white"/>
<stop offset="0.654854" stop-color="white" stop-opacity="0.645125"/>
<stop offset="1" stop-color="white" stop-opacity="0.49"/>
</radialGradient>
</defs>
</svg>
