<svg width="91" height="82" viewBox="0 0 91 82" fill="none" xmlns="http://www.w3.org/2000/svg">
<rect width="90.2778" height="81.25" rx="12.5" fill="#E19809"/>
<rect width="90.2778" height="81.25" rx="12.5" fill="url(#paint0_radial_1007_674)" fill-opacity="0.7"/>
<path d="M23.0711 67.7083H68.21C69.5402 67.7083 70.8159 67.1799 71.7564 66.2393C72.697 65.2987 73.2254 64.023 73.2254 62.6929V20.0617C73.2254 18.7315 72.697 17.4558 71.7564 16.5153C70.8159 15.5747 69.5402 15.0463 68.21 15.0463H53.1637V32.011C53.1644 32.36 53.0653 32.7019 52.8781 32.9964C52.6909 33.291 52.4235 33.5259 52.1072 33.6734C51.791 33.821 51.4391 33.8751 51.0931 33.8294C50.7472 33.7837 50.4215 33.64 50.1544 33.4153L48.4241 31.9733C47.6405 31.3217 46.6534 30.965 45.6343 30.965C44.6151 30.965 43.6281 31.3217 42.8444 31.9733L41.1267 33.4278C40.8588 33.6532 40.5319 33.7971 40.1848 33.8424C39.8377 33.8877 39.4849 33.8325 39.1681 33.6834C38.8514 33.5343 38.5841 33.2975 38.3979 33.001C38.2116 32.7046 38.1143 32.361 38.1174 32.011V15.0463H23.0711C21.7409 15.0463 20.4652 15.5747 19.5246 16.5153C18.5841 17.4558 18.0557 18.7315 18.0557 20.0617V62.6929C18.0557 64.023 18.5841 65.2987 19.5246 66.2393C20.4652 67.1799 21.7409 67.7083 23.0711 67.7083ZM29.3404 56.4236H39.2333C39.8497 56.3995 40.4545 56.5958 40.9393 56.9772C41.4241 57.3586 41.7573 57.9002 41.879 58.505C41.9417 58.8681 41.9235 59.2406 41.8259 59.596C41.7283 59.9513 41.5535 60.2807 41.3141 60.5609C41.0747 60.841 40.7764 61.0649 40.4406 61.2167C40.1048 61.3685 39.7397 61.4444 39.3713 61.439H29.4783C28.8619 61.4631 28.2571 61.2668 27.7723 60.8854C27.2875 60.504 26.9544 59.9623 26.8327 59.3576C26.77 58.9945 26.7881 58.622 26.8857 58.2666C26.9834 57.9113 27.1581 57.5818 27.3975 57.3017C27.637 57.0216 27.9352 56.7977 28.271 56.6459C28.6068 56.4941 28.9719 56.4182 29.3404 56.4236Z" fill="white"/>
<defs>
<radialGradient id="paint0_radial_1007_674" cx="0" cy="0" r="1" gradientUnits="userSpaceOnUse" gradientTransform="translate(21.8171 16.5509) rotate(45) scale(60.6442 67.3825)">
<stop stop-color="white"/>
<stop offset="0.654854" stop-color="white" stop-opacity="0.645125"/>
<stop offset="1" stop-color="white" stop-opacity="0.49"/>
</radialGradient>
</defs>
</svg>
