<svg width="26" height="24" viewBox="0 0 26 24" fill="none" xmlns="http://www.w3.org/2000/svg">
<path id="Star 3" d="M11.7664 1.67808C12.1632 0.494865 13.8368 0.494865 14.2336 1.67808L16.2946 7.82283C16.4724 8.35298 16.969 8.71024 17.5282 8.71024H24.1076C25.378 8.71024 25.8954 10.3442 24.8565 11.0754L19.6055 14.7713C19.1349 15.1025 18.9378 15.7035 19.1208 16.2491L21.1431 22.2787C21.5428 23.4703 20.1883 24.4799 19.1606 23.7565L13.7489 19.9476C13.2997 19.6314 12.7003 19.6314 12.2511 19.9476L6.83944 23.7565C5.8117 24.4799 4.45725 23.4703 4.8569 22.2787L6.87924 16.2491C7.06223 15.7035 6.8651 15.1025 6.39452 14.7713L1.14354 11.0754C0.10462 10.3442 0.621993 8.71024 1.89245 8.71024H8.47178C9.03096 8.71024 9.5276 8.35298 9.70541 7.82283L11.7664 1.67808Z" fill="#F7CB15"/>
</svg>
