<svg width="21" height="24" viewBox="0 0 21 24" fill="none" xmlns="http://www.w3.org/2000/svg">
<path d="M5.64198 1.19026C10.7758 -1.48892 17.132 0.508183 19.8097 5.64198C22.4889 10.7758 20.4918 17.132 15.358 19.8097C13.7413 20.6532 11.9308 21.063 10.1204 20.9957L9.95757 20.99L10.5049 18.353L10.6158 18.3516C11.8438 18.3347 13.0255 18.0344 14.13 17.459C15.9882 16.4892 17.3579 14.8542 17.9867 12.8543C18.6154 10.8544 18.4274 8.72815 17.4576 6.86999C16.4878 5.01183 14.8528 3.64207 12.8529 3.01333C10.853 2.38459 8.72815 2.57265 6.86859 3.54243C5.01043 4.51221 3.64067 6.14722 3.01193 8.14713C2.38318 10.147 2.57124 12.2718 3.54102 14.1314C4.16836 15.3342 5.09323 16.3531 6.21599 17.08L6.31563 17.1446L5.23498 19.588L5.10025 19.508C3.44138 18.5158 2.08846 17.0814 1.19026 15.358C-1.48892 10.2242 0.508183 3.86803 5.64198 1.19026Z" fill="white"/>
<path d="M7.93142 5.57461C10.6513 4.15573 14.0069 5.20972 15.4258 7.92959C16.8447 10.6495 15.7907 14.0051 13.0708 15.424C12.4477 15.7496 11.7909 15.9447 11.1327 16.019L11.7221 13.1785C11.7698 13.1574 11.8161 13.1336 11.8639 13.1097C13.3024 12.3589 13.8624 10.5765 13.1115 9.13795C12.9936 8.912 12.8505 8.7085 12.6877 8.52745C12.421 8.23273 12.1025 7.99976 11.7516 7.83556C11.3334 7.63908 10.8702 7.54224 10.4043 7.55627C9.97483 7.5689 9.54398 7.67697 9.13838 7.88889C7.69985 8.63973 7.13988 10.4221 7.89072 11.8606C7.99457 12.0599 8.11948 12.2424 8.25982 12.408L7.14549 14.9258C6.50973 14.4458 5.9694 13.8198 5.57644 13.0676C4.15756 10.3505 5.21155 6.99489 7.93142 5.57461Z" fill="#25D4E3"/>
<path d="M8.79088 23.766L11.3002 10.5189L9.99363 10.1091L4.52441 22.4257L8.79088 23.766Z" fill="white"/>
</svg>
