<svg width="155" height="31" viewBox="0 0 155 31" fill="none" xmlns="http://www.w3.org/2000/svg">
<g id="Group 1000001491">
<path id="Star 1" d="M45.2625 3.80859C45.652 2.60981 47.348 2.60981 47.7375 3.80859L49.6878 9.81115C49.862 10.3473 50.3616 10.7102 50.9253 10.7102H57.2368C58.4973 10.7102 59.0213 12.3232 58.0016 13.0641L52.8955 16.7739C52.4395 17.1052 52.2486 17.6925 52.4228 18.2286L54.3732 24.2312C54.7627 25.43 53.3906 26.4268 52.3709 25.6859L47.2648 21.9761C46.8088 21.6448 46.1912 21.6448 45.7352 21.9761L40.6291 25.6859C39.6094 26.4268 38.2373 25.43 38.6268 24.2312L40.5772 18.2286C40.7514 17.6925 40.5605 17.1052 40.1045 16.7739L34.9984 13.0641C33.9787 12.3232 34.5027 10.7102 35.7632 10.7102H42.0747C42.6384 10.7102 43.138 10.3473 43.3122 9.81115L45.2625 3.80859Z" fill="#F7CB15"/>
<path id="Star 5" d="M14.2625 3.80859C14.652 2.60981 16.348 2.60981 16.7375 3.80859L18.6878 9.81115C18.862 10.3473 19.3616 10.7102 19.9253 10.7102H26.2368C27.4973 10.7102 28.0213 12.3232 27.0016 13.0641L21.8955 16.7739C21.4395 17.1052 21.2486 17.6925 21.4228 18.2286L23.3732 24.2312C23.7627 25.43 22.3906 26.4268 21.3709 25.6859L16.2648 21.9761C15.8088 21.6448 15.1912 21.6448 14.7352 21.9761L9.62911 25.6859C8.60936 26.4268 7.23731 25.43 7.62681 24.2312L9.57716 18.2286C9.75136 17.6925 9.56053 17.1052 9.10449 16.7739L3.9984 13.0641C2.97866 12.3232 3.50274 10.7102 4.76321 10.7102H11.0747C11.6384 10.7102 12.138 10.3473 12.3122 9.81115L14.2625 3.80859Z" fill="#F7CB15"/>
<path id="Star 2" d="M76.2625 3.80859C76.652 2.60981 78.348 2.60981 78.7375 3.80859L80.6878 9.81115C80.862 10.3473 81.3616 10.7102 81.9253 10.7102H88.2368C89.4973 10.7102 90.0213 12.3232 89.0016 13.0641L83.8955 16.7739C83.4395 17.1052 83.2486 17.6925 83.4228 18.2286L85.3732 24.2312C85.7627 25.43 84.3906 26.4268 83.3709 25.6859L78.2648 21.9761C77.8088 21.6448 77.1912 21.6448 76.7352 21.9761L71.6291 25.6859C70.6094 26.4268 69.2373 25.43 69.6268 24.2312L71.5772 18.2286C71.7514 17.6925 71.5605 17.1052 71.1045 16.7739L65.9984 13.0641C64.9787 12.3232 65.5027 10.7102 66.7632 10.7102H73.0747C73.6384 10.7102 74.138 10.3473 74.3122 9.81115L76.2625 3.80859Z" fill="#F7CB15"/>
<path id="Star 3" d="M106.766 3.67808C107.163 2.49486 108.837 2.49487 109.234 3.67808L111.295 9.82283C111.472 10.353 111.969 10.7102 112.528 10.7102H119.108C120.378 10.7102 120.895 12.3442 119.856 13.0754L114.605 16.7713C114.135 17.1025 113.938 17.7035 114.121 18.2491L116.143 24.2787C116.543 25.4703 115.188 26.4799 114.161 25.7565L108.749 21.9476C108.3 21.6314 107.7 21.6314 107.251 21.9476L101.839 25.7565C100.812 26.4799 99.4572 25.4703 99.8569 24.2787L101.879 18.2491C102.062 17.7035 101.865 17.1025 101.395 16.7713L96.1435 13.0754C95.1046 12.3442 95.622 10.7102 96.8924 10.7102H103.472C104.031 10.7102 104.528 10.353 104.705 9.82283L106.766 3.67808Z" fill="#F7CB15"/>
<path id="Star 4" d="M137.766 3.67808C138.163 2.49486 139.837 2.49487 140.234 3.67808L142.295 9.82283C142.472 10.353 142.969 10.7102 143.528 10.7102H150.108C151.378 10.7102 151.895 12.3442 150.856 13.0754L145.605 16.7713C145.135 17.1025 144.938 17.7035 145.121 18.2491L147.143 24.2787C147.543 25.4703 146.188 26.4799 145.161 25.7565L139.749 21.9476C139.3 21.6314 138.7 21.6314 138.251 21.9476L132.839 25.7565C131.812 26.4799 130.457 25.4703 130.857 24.2787L132.879 18.2491C133.062 17.7035 132.865 17.1025 132.395 16.7713L127.144 13.0754C126.105 12.3442 126.622 10.7102 127.892 10.7102H134.472C135.031 10.7102 135.528 10.353 135.705 9.82283L137.766 3.67808Z" fill="#F7CB15"/>
</g>
</svg>
