<svg width="88" height="80" viewBox="0 0 88 80" fill="none" xmlns="http://www.w3.org/2000/svg">
<g id="Group 1000001508">
<g id="Rectangle 110">
<rect width="88" height="79.2" rx="10" fill="#25D4E3"/>
<rect width="88" height="79.2" rx="10" fill="url(#paint0_radial_222_2279)" fill-opacity="0.7"/>
</g>
<g id="plan 1">
<path id="Vector" d="M56.0557 14.667H31.0112C26.889 14.667 23.4668 18.0892 23.4668 22.2114V58.4559C23.4668 62.5781 26.889 66.0003 31.0112 66.0003H56.0557C60.1779 66.0003 63.6001 62.5781 63.6001 58.4559V22.2114C63.6001 18.0892 60.2557 14.667 56.0557 14.667ZM62.0446 58.4559C62.0446 61.7226 59.3224 64.4448 56.0557 64.4448H31.0112C27.7446 64.4448 25.0224 61.7226 25.0224 58.4559V22.2114C25.0224 18.9448 27.7446 16.2225 31.0112 16.2225H56.0557C59.3224 16.2225 62.0446 18.9448 62.0446 22.2114V58.4559Z" fill="#150B36"/>
<path id="Vector_2" d="M56.9119 37.9229H43.0674C42.6008 37.9229 42.2897 38.234 42.2897 38.7006C42.2897 39.1673 42.6008 39.4784 43.0674 39.4784H56.9119C57.3786 39.4784 57.6897 39.1673 57.6897 38.7006C57.6897 38.234 57.3786 37.9229 56.9119 37.9229ZM43.0674 43.9117H51.4674C51.9341 43.9117 52.2452 43.6006 52.2452 43.134C52.2452 42.6673 51.9341 42.3562 51.4674 42.3562H43.0674C42.6008 42.3562 42.2897 42.6673 42.2897 43.134C42.2897 43.6006 42.6008 43.9117 43.0674 43.9117ZM36.7674 50.0562H32.1786C30.623 50.0562 29.3786 51.3006 29.3786 52.8562V57.4451C29.3786 59.0006 30.623 60.2451 32.1786 60.2451H36.7674C38.323 60.2451 39.5674 59.0006 39.5674 57.4451V52.8562C39.5674 51.3006 38.323 50.0562 36.7674 50.0562ZM36.3786 54.8784L34.3563 56.5895C34.2008 56.6673 34.0452 56.7451 33.8897 56.7451H33.8119C33.5786 56.7451 33.423 56.5895 33.2674 56.434L32.4897 55.3451C32.2563 55.034 32.3341 54.4895 32.723 54.2562C33.1119 54.0229 33.5786 54.1006 33.8119 54.4895L34.0452 54.8784L35.4452 53.7117C35.7563 53.4006 36.223 53.4784 36.5341 53.7895C36.6897 54.1006 36.6897 54.5673 36.3786 54.8784ZM32.3341 32.0117H54.6563C56.2897 32.0117 57.6897 30.6895 57.6897 28.9784V23.4562C57.6897 21.8229 56.3675 20.4229 54.6563 20.4229H32.3341C30.7008 20.4229 29.3008 21.7451 29.3008 23.4562V28.9784C29.3786 30.6117 30.7008 32.0117 32.3341 32.0117ZM36.7674 35.8229H32.1786C30.623 35.8229 29.3786 37.0673 29.3786 38.6229V43.2117C29.3786 44.7673 30.623 46.0117 32.1786 46.0117H36.7674C38.323 46.0117 39.5674 44.7673 39.5674 43.2117V38.6229C39.5674 37.0673 38.323 35.8229 36.7674 35.8229ZM36.3786 40.6451L34.3563 42.3562C34.2008 42.5117 34.0452 42.5117 33.8897 42.5117H33.8119C33.5786 42.5117 33.423 42.3562 33.2674 42.2006L32.4897 41.1117C32.2563 40.7229 32.3341 40.2562 32.723 40.0229C33.1119 39.7895 33.5786 39.8673 33.8119 40.2562L34.0452 40.6451L35.4452 39.4784C35.7563 39.2451 36.223 39.2451 36.5341 39.5562C36.6897 39.8673 36.6897 40.334 36.3786 40.6451ZM56.9119 52.1562H43.0674C42.6008 52.1562 42.2897 52.4673 42.2897 52.934C42.2897 53.4006 42.6008 53.7117 43.0674 53.7117H56.9119C57.3786 53.7117 57.6897 53.4006 57.6897 52.934C57.6897 52.4673 57.3786 52.1562 56.9119 52.1562ZM51.4674 56.5895H43.0674C42.6008 56.5895 42.2897 56.9006 42.2897 57.3673C42.2897 57.834 42.6008 58.1451 43.0674 58.1451H51.4674C51.9341 58.1451 52.2452 57.834 52.2452 57.3673C52.2452 56.9006 51.8563 56.5895 51.4674 56.5895Z" fill="#150B36"/>
</g>
</g>
<defs>
<radialGradient id="paint0_radial_222_2279" cx="0" cy="0" r="1" gradientUnits="userSpaceOnUse" gradientTransform="translate(21.2667 16.1333) rotate(45) scale(59.1141 65.6824)">
<stop stop-color="white"/>
<stop offset="0.654854" stop-color="white" stop-opacity="0.645125"/>
<stop offset="1" stop-color="white" stop-opacity="0.49"/>
</radialGradient>
</defs>
</svg>
