<svg width="22" height="20" viewBox="0 0 22 20" fill="none" xmlns="http://www.w3.org/2000/svg">
<path id="Vector" d="M2.52917 13.7406C4.01512 15.1276 5.99394 15.9603 8.09284 16.0817C10.1917 16.2031 12.2658 15.6049 13.9244 14.3997L19.6311 19.7192C19.8335 19.9014 20.1045 20.0022 20.3859 20C20.6672 19.9977 20.9364 19.8925 21.1354 19.707C21.3343 19.5216 21.4472 19.2707 21.4496 19.0084C21.4521 18.7461 21.3439 18.4935 21.1484 18.3048L15.4417 12.9853C16.792 11.3701 17.4304 9.33548 17.2267 7.29654C17.023 5.2576 15.9925 3.36788 14.3455 2.01277C12.6985 0.657665 10.559 -0.0607542 8.36322 0.00402942C6.16749 0.068813 4.08096 0.91192 2.52917 2.3614C1.72735 3.10843 1.09129 3.9954 0.657327 4.97164C0.223363 5.94788 0 6.99425 0 8.05098C0 9.10771 0.223363 10.1541 0.657327 11.1303C1.09129 12.1066 1.72735 12.9935 2.52917 13.7406ZM4.04653 3.7778C5.10736 2.78897 6.50318 2.17359 7.99618 2.03651C9.48919 1.89943 10.987 2.24912 12.2344 3.02601C13.4818 3.8029 14.4017 4.95892 14.8372 6.29711C15.2728 7.6353 15.1971 9.07287 14.6231 10.3649C14.0491 11.6569 13.0123 12.7234 11.6892 13.3827C10.3662 14.0421 8.83888 14.2534 7.36745 13.9807C5.89602 13.7081 4.57153 12.9683 3.61964 11.8874C2.66776 10.8065 2.14737 9.45141 2.14715 8.05298C2.1442 7.25833 2.31059 6.47105 2.63664 5.73682C2.96269 5.00259 3.44192 4.33602 4.04653 3.7758V3.7778Z" fill="#C5CAE6"/>
</svg>
