<svg width="530" height="488" viewBox="0 0 530 488" fill="none" xmlns="http://www.w3.org/2000/svg">
<g clip-path="url(#clip0_1_1245)">
<path d="M492.719 248.947C510.724 229.65 527.63 203.641 518.429 179.237C509.205 154.77 478.949 145.405 452.411 140.717C425.873 136.041 395.766 130.871 381.07 109.045C366.239 87.0086 373.315 56.1014 358.743 33.9174C343.257 10.3391 310.285 5.67525 281.474 3.31866C237.536 -0.271753 192.301 -3.73878 150.203 8.9202C108.105 21.5792 69.4027 54.4481 64.6112 96.7434C59.7457 139.742 89.8034 183.333 76.5775 224.666C62.8576 267.566 7.00251 291.23 1.4454 335.796C-1.46899 359.127 10.6949 381.472 22.476 402.04C37.5419 428.357 52.6079 456.34 67.6738 482.657H441.729C436.357 475.341 441.68 464.804 449.176 459.499C456.684 454.205 466.081 451.738 473.293 446.075C492.397 431.084 488.088 401.645 477.319 380.275C466.551 358.905 450.707 338.017 452.016 314.29C453.448 288.355 474.714 268.232 492.719 248.947Z" fill="#F3EDFF"/>
<path d="M32.1081 267.01C72.465 228.182 69.3777 207.528 61.1038 155.794C57.0657 130.55 24.9332 155.288 13.4732 193.549C1.44518 233.709 10.6329 287.677 32.1081 267.01Z" fill="#F3EDFF"/>
<path d="M163.614 463.187C158.279 472.675 84.666 492.959 84.1226 465.013C83.6657 441.484 137.187 448.492 156.822 456.747C150.968 451.022 145.362 445.124 139.978 439.251C134.828 433.625 129.876 427.838 125.122 421.904C113.575 429.257 42.6542 431.034 48.3348 404.667C52.8793 383.569 95.7184 397.869 116.07 410.047C108.92 400.312 102.251 390.232 96.0766 379.855C87.5557 387.196 12.0037 384.655 19.7342 357.93C26.2052 335.61 74.0951 357.326 90.9887 371.07C84.666 359.818 78.8742 348.257 73.6135 336.449C62.8451 342.125 -9.89133 329.737 1.13644 304.555C10.2624 283.728 53.2004 309.861 69.0567 325.826C66.3028 319.164 63.7218 312.415 61.2767 305.629C49.9279 301.002 12.3248 237.756 38.6408 229.835C63.5119 222.346 70.3039 287.997 65.0802 302.914C67.8094 310.601 70.7608 318.189 73.9222 325.703C74.8484 304.728 92.2607 251.711 113.291 263.42C136.977 276.609 89.655 331.132 77.4294 333.871C82.6037 345.506 88.3213 356.881 94.5453 367.973C93.298 346.086 103.659 293.87 125.542 302.544C150.413 312.402 112.007 371.157 99.6825 376.857C107.191 389.454 115.403 401.632 124.331 413.304C120.083 394.895 126.11 334.438 150.005 342.026C176.346 350.392 138.953 415.574 128.283 418.424C133.161 424.569 138.224 430.577 143.51 436.426C148.252 441.657 153.204 446.913 158.366 452.021C150.746 431.219 145.374 378.967 168.689 380.756C195.351 382.792 176.161 450.22 166.071 459.375C175.691 468.197 185.978 476.315 196.957 482.78C199.488 484.273 196.759 487.925 194.252 486.445C183.348 479.992 173.16 471.935 163.614 463.187Z" fill="#C8C1E8"/>
<path d="M276.066 485.754C278.659 468.777 282.228 451.947 286.735 435.365C291.23 418.819 296.689 402.545 303.011 386.604C309.359 370.639 316.583 355.018 324.659 339.855C332.711 324.716 341.615 310.033 351.321 295.894C361.003 281.791 371.475 268.244 382.688 255.326C384.108 253.685 385.541 252.069 386.986 250.44C388.875 248.33 385.479 245.529 383.602 247.627C372.055 260.57 361.238 274.166 351.247 288.33C341.281 302.47 332.094 317.165 323.758 332.316C315.435 347.443 307.951 363.026 301.369 378.979C294.738 395.043 289.02 411.478 284.216 428.172C279.449 444.754 275.609 461.608 272.756 478.635C272.398 480.769 272.052 482.916 271.731 485.051C271.287 487.864 275.633 488.555 276.066 485.754Z" fill="#DAD4F8"/>
<path d="M345.962 304.395C342.739 270.835 351.63 221.112 352.42 188.058C353.297 151.586 358.397 112.388 389.258 91.2526C397.309 85.7374 407.572 81.6288 418.958 83.1464C434.95 85.2809 448.917 98.347 454.338 111.808C459.759 125.269 458.327 138.964 455.746 151.808C443.125 214.523 403.768 269.219 345.962 304.395Z" fill="#DAD4F8"/>
<path d="M297.454 395.364C275.3 372.169 253.034 329.861 234.288 304.716C213.603 276.967 194.573 244.715 205.984 211.032C208.96 202.247 214.468 193.215 224.137 187.75C237.721 180.063 256.146 181.729 268.211 188.638C280.276 195.547 287.204 206.615 292.724 217.707C319.732 271.871 321.424 335.561 297.454 395.364Z" fill="#DAD4F8"/>
<path d="M280.548 444.187C297.985 412.219 335.613 369.825 356.211 339.793C378.946 306.653 406.954 272.526 446.323 264.333C456.585 262.199 467.921 262.149 476.837 267.677C489.347 275.45 493.533 292.513 490.1 306.826C486.667 321.138 477.183 333.192 467.217 344.038C418.549 397.006 351.629 432.91 280.548 444.187Z" fill="#DAD4F8"/>
<path d="M267.556 487.444C288.587 481.67 308.975 470.775 327.709 458.869C328.524 459.424 329.722 460.189 331.241 461.028C334.341 462.792 338.799 464.989 344.158 467C349.518 468.999 355.803 470.837 362.534 472.132C369.289 473.453 376.5 474.218 383.712 474.501C390.949 474.711 398.186 474.415 405.002 473.539C408.423 473.107 411.708 472.54 414.845 471.886C417.969 471.232 420.92 470.405 423.674 469.603C426.416 468.776 428.91 467.888 431.17 467.012C433.393 466.124 435.344 465.26 436.937 464.47C440.16 462.903 442.013 461.682 442.013 461.682C442.013 461.682 440.247 460.325 437.135 458.573C435.579 457.672 433.677 456.685 431.504 455.661C429.342 454.637 426.873 453.613 424.205 452.589C421.525 451.614 418.623 450.59 415.536 449.751C412.449 448.887 409.201 448.098 405.817 447.456C399.075 446.124 391.863 445.371 384.639 445.124C377.414 444.939 370.153 445.223 363.349 446.124C356.532 446.975 350.16 448.406 344.664 450.059C341.972 450.874 339.503 451.75 337.292 452.613C338.687 451.663 340.095 450.726 341.478 449.776C354.89 440.633 367.683 430.713 379.946 420.201C380.588 420.583 381.329 421.015 382.181 421.509C385.293 423.286 389.751 425.482 395.111 427.468C400.47 429.467 406.743 431.305 413.486 432.613C420.216 433.933 427.441 434.711 434.665 434.982C441.901 435.204 449.138 434.92 455.942 434.02C459.351 433.588 462.648 433.033 465.797 432.354C468.921 431.7 471.885 430.874 474.627 430.072C477.381 429.245 479.875 428.357 482.123 427.493C484.345 426.592 486.297 425.729 487.914 424.939C491.137 423.372 492.99 422.15 492.99 422.15C492.99 422.15 491.212 420.793 488.124 419.041C486.544 418.141 484.654 417.153 482.493 416.129C480.32 415.105 477.862 414.069 475.17 413.057C472.49 412.082 469.601 411.071 466.513 410.219C463.426 409.356 460.166 408.591 456.795 407.937C450.052 406.617 442.84 405.852 435.616 405.617C428.379 405.42 421.13 405.704 414.326 406.592C407.509 407.468 401.125 408.887 395.642 410.54C392.764 411.404 390.159 412.342 387.825 413.242C399.569 402.705 410.769 391.613 421.451 379.991C422.217 380.176 423.094 380.398 424.106 380.62C427.626 381.348 432.541 382.101 438.246 382.384C443.964 382.681 450.496 382.533 457.326 381.731C464.142 380.953 471.255 379.51 478.233 377.573C485.198 375.598 492.014 373.131 498.238 370.219C501.363 368.788 504.326 367.258 507.105 365.666C509.896 364.099 512.464 362.421 514.835 360.83C517.182 359.189 519.331 357.609 521.195 356.092C523.048 354.562 524.665 353.155 525.937 351.921C528.531 349.466 529.926 347.726 529.926 347.726C529.926 347.726 527.839 346.974 524.332 346.221C522.578 345.851 520.479 345.481 518.083 345.16C515.712 344.839 513.057 344.593 510.192 344.42C507.34 344.321 504.252 344.222 501.066 344.346C497.868 344.457 494.533 344.704 491.113 345.086C484.296 345.876 477.183 347.332 470.23 349.281C463.265 351.268 456.473 353.748 450.237 356.659C444.124 359.485 438.592 362.705 433.936 365.864C442.544 355.783 450.793 345.395 458.696 334.722C461.524 332.958 464.933 330.576 468.576 327.554C472.972 323.877 477.665 319.336 482.135 314.13C486.642 308.935 490.878 303.062 494.682 296.905C498.46 290.749 501.795 284.308 504.4 277.942C505.709 274.771 506.846 271.637 507.821 268.589C508.797 265.554 509.55 262.568 510.217 259.78C510.847 256.991 511.328 254.363 511.662 251.994C511.995 249.613 512.217 247.503 512.316 245.714C512.576 242.149 512.39 239.928 512.39 239.928C512.39 239.928 510.353 240.791 507.278 242.617C505.722 243.53 503.931 244.678 501.968 246.06C500.004 247.429 497.868 249.046 495.67 250.884C493.484 252.735 491.175 254.746 488.902 257.004C486.63 259.249 484.345 261.692 482.11 264.283C477.615 269.478 473.392 275.375 469.588 281.52C465.859 287.689 462.525 294.142 459.919 300.496C457.288 306.85 455.374 313.081 454.102 318.658C452.83 324.235 452.201 329.158 451.966 332.723C451.88 333.932 451.855 334.969 451.843 335.845C439.049 352.872 425.292 369.207 410.584 384.581C411.807 381.459 413.153 377.424 414.301 372.761C415.66 367.196 416.734 360.756 417.253 353.92C417.771 347.073 417.685 339.83 417.104 332.637C416.475 325.431 415.339 318.288 413.634 311.637C412.795 308.294 411.856 305.086 410.831 302.063C409.806 299.04 408.658 296.19 407.534 293.562C406.361 290.946 405.2 288.553 404.064 286.443C402.915 284.333 401.829 282.494 400.853 280.989C398.939 277.991 397.494 276.301 397.494 276.301C397.494 276.301 396.346 278.201 394.962 281.495C394.246 283.148 393.493 285.147 392.715 287.417C391.962 289.7 391.221 292.254 390.517 295.018C389.875 297.806 389.195 300.804 388.714 303.963C388.22 307.109 387.825 310.44 387.578 313.858C387.059 320.718 387.145 327.961 387.763 335.154C388.417 342.359 389.578 349.503 391.258 356.166C392.912 362.816 395.086 368.985 397.383 374.241C399.667 379.485 402.1 383.816 404.027 386.814C404.706 387.875 405.323 388.788 405.854 389.491C390.9 404.692 375.006 418.918 358.088 431.836C358.36 431.219 358.668 430.54 359.002 429.763C360.385 426.469 362.027 421.793 363.386 416.228C364.756 410.664 365.831 404.235 366.35 397.388C366.868 390.54 366.794 383.297 366.201 376.08C365.572 368.874 364.423 361.73 362.731 355.055C361.904 351.749 360.965 348.528 359.928 345.506C358.915 342.483 357.742 339.633 356.631 337.005C355.47 334.377 354.309 331.983 353.161 329.885C352.025 327.776 350.938 325.937 349.95 324.42C348.023 321.434 346.579 319.731 346.579 319.731C346.579 319.731 345.442 321.631 344.059 324.938C343.355 326.579 342.602 328.578 341.824 330.86C341.071 333.143 340.318 335.697 339.638 338.473C338.971 341.249 338.305 344.247 337.835 347.406C337.329 350.564 336.934 353.896 336.687 357.313C336.181 364.149 336.267 371.391 336.872 378.597C337.514 385.802 338.675 392.958 340.355 399.621C342.022 406.271 344.183 412.44 346.48 417.672C348.777 422.915 351.197 427.234 353.124 430.244C354.074 431.737 354.914 432.909 355.507 433.711C348.999 438.622 342.355 443.347 335.538 447.839C327.19 453.354 318.472 458.881 309.469 463.977C309.84 463.212 310.272 462.274 310.729 461.164C312.137 457.857 313.779 453.193 315.113 447.641C316.496 442.089 317.583 435.636 318.077 428.813C318.608 421.953 318.534 414.711 317.929 407.505C317.311 400.3 316.175 393.168 314.496 386.505C313.668 383.162 312.705 379.954 311.668 376.931C310.655 373.908 309.482 371.058 308.37 368.43C307.222 365.827 306.049 363.421 304.9 361.311C303.752 359.201 302.665 357.363 301.702 355.87C299.775 352.859 298.33 351.169 298.33 351.169C298.33 351.169 297.194 353.081 295.787 356.363C295.095 358.017 294.329 360.015 293.564 362.286C292.798 364.568 292.069 367.122 291.353 369.898C290.711 372.674 290.032 375.697 289.575 378.831C289.069 381.99 288.673 385.309 288.426 388.726C287.908 395.586 288.007 402.817 288.612 410.022C289.279 417.215 290.402 424.371 292.107 431.046C293.761 437.697 295.947 443.853 298.219 449.097C300.516 454.353 302.949 458.659 304.888 461.682C305.851 463.212 306.703 464.396 307.308 465.211C294.095 472.552 280.276 478.894 266.05 482.793C263.098 483.595 264.519 488.283 267.556 487.444Z" fill="#C8C1E8"/>
<path d="M175.592 54.5467C181.446 54.5467 186.2 59.2846 186.2 65.1452C186.2 67.0946 187.781 68.6739 189.732 68.6739C191.683 68.6739 193.264 67.0946 193.264 65.1452C193.264 55.398 185.348 47.4893 175.592 47.4893C173.641 47.4893 172.061 49.0685 172.061 51.018C172.061 52.9674 173.641 54.5467 175.592 54.5467Z" fill="#9EB6EA"/>
<path d="M175.593 40.4194C189.264 40.4194 200.328 51.4867 200.328 65.1328C200.328 67.0822 201.909 68.6615 203.86 68.6615C205.811 68.6615 207.392 67.0822 207.392 65.1328C207.392 47.5755 193.153 33.3496 175.581 33.3496C173.629 33.3496 172.049 34.9289 172.049 36.8783C172.049 38.8278 173.642 40.4194 175.593 40.4194Z" fill="#9EB6EA"/>
<path d="M206.515 82.4803C206.12 81.3328 205.157 80.4568 203.971 80.1854L182.768 75.3488C181.595 75.0897 180.372 75.4352 179.52 76.2618C179.026 76.7183 178.989 76.7554 176.692 81.1354C169.073 77.6314 162.96 71.4993 159.477 63.8619C163.96 61.6041 163.997 61.6041 164.466 61.0735C165.306 60.2222 165.652 58.9884 165.38 57.8286L160.539 36.8907C160.268 35.7062 159.391 34.7438 158.242 34.349C157.415 34.0529 156.563 33.8431 155.698 33.7074C154.809 33.4977 153.895 33.3866 152.982 33.3496C144.004 33.3496 136.718 40.6168 136.718 49.599C136.755 79.6178 161.107 103.949 191.153 103.986C200.131 103.986 207.417 96.7185 207.417 87.7363C207.417 86.8357 207.342 85.935 207.207 85.0466C207.046 84.1829 206.824 83.3193 206.515 82.4803Z" fill="#454975"/>
<path d="M379.712 64.454H336.28C327.277 64.454 319.917 57.1005 319.917 48.1059C319.917 39.1114 327.277 31.7578 336.28 31.7578H379.712C388.714 31.7578 396.074 39.1114 396.074 48.1059C396.074 57.1005 388.714 64.454 379.712 64.454Z" fill="#454975"/>
<path d="M383.786 69.4754C383.786 71.4742 382.169 73.0905 380.168 73.0905C378.168 73.0905 376.55 71.4742 376.55 69.4754C376.55 67.4767 378.168 65.8604 380.168 65.8604C382.169 65.8604 383.786 67.489 383.786 69.4754Z" fill="#454975"/>
<path d="M348.505 47.6617C348.505 50.2774 346.381 52.3996 343.763 52.3996C341.145 52.3996 339.021 50.2774 339.021 47.6617C339.021 45.046 341.145 42.9238 343.763 42.9238C346.381 42.9238 348.505 45.046 348.505 47.6617Z" fill="white"/>
<path d="M362.743 47.6617C362.743 50.2774 360.619 52.3996 358.001 52.3996C355.383 52.3996 353.259 50.2774 353.259 47.6617C353.259 45.046 355.383 42.9238 358.001 42.9238C360.619 42.9238 362.743 45.046 362.743 47.6617Z" fill="white"/>
<path d="M376.982 47.6617C376.982 50.2774 374.858 52.3996 372.24 52.3996C369.622 52.3996 367.498 50.2774 367.498 47.6617C367.498 45.046 369.622 42.9238 372.24 42.9238C374.858 42.9238 376.982 45.046 376.982 47.6617Z" fill="white"/>
<path d="M316.409 102.443H359.841C368.844 102.443 376.204 95.0897 376.204 86.0952C376.204 77.1006 368.844 69.7471 359.841 69.7471H316.409C307.407 69.7471 300.047 77.1006 300.047 86.0952C300.047 95.0897 307.407 102.443 316.409 102.443Z" fill="#9EB6EA"/>
<path d="M312.322 107.465C312.322 109.463 313.94 111.08 315.941 111.08C317.941 111.08 319.559 109.463 319.559 107.465C319.559 105.466 317.941 103.85 315.941 103.85C313.94 103.85 312.322 105.466 312.322 107.465Z" fill="#9EB6EA"/>
<path d="M328.623 85.7994C328.623 88.4151 326.499 90.5373 323.881 90.5373C321.263 90.5373 319.139 88.4151 319.139 85.7994C319.139 83.1837 321.263 81.0615 323.881 81.0615C326.499 81.0615 328.623 83.1837 328.623 85.7994Z" fill="white"/>
<path d="M342.861 85.7994C342.861 88.4151 340.737 90.5373 338.119 90.5373C335.501 90.5373 333.377 88.4151 333.377 85.7994C333.377 83.1837 335.501 81.0615 338.119 81.0615C340.737 81.0615 342.861 83.1837 342.861 85.7994Z" fill="white"/>
<path d="M357.1 85.7994C357.1 88.4151 354.976 90.5373 352.358 90.5373C349.74 90.5373 347.616 88.4151 347.616 85.7994C347.616 83.1837 349.74 81.0615 352.358 81.0615C354.976 81.0615 357.1 83.1837 357.1 85.7994Z" fill="white"/>
<path d="M252.466 200.014C250.96 203.888 248.44 206.998 245.477 209.009C241.685 211.612 237.166 212.439 233.078 210.859C225.792 208.046 222.655 198.595 226.088 189.786C229.497 180.976 238.178 176.115 245.477 178.941C245.514 178.953 245.563 178.965 245.6 178.99C252.787 181.877 255.862 191.254 252.466 200.014Z" fill="#A6AFE2"/>
<path d="M73.7501 186.862C81.3819 198.484 103.598 232.242 116.058 250.539C106.611 268.207 86.8279 277.979 86.8279 277.979C86.8279 277.979 76.6028 250.638 71.2186 235.832C65.8343 221.026 61.6603 209.502 61.8209 201.939C61.8456 200.89 62.6977 200.545 63.2781 200.421L62.463 198.953C61.4751 197.164 62.179 194.906 64.019 193.993C65.1922 193.413 66.5136 193.574 67.5385 194.24L66.0319 191.797C64.7847 189.786 65.2786 187.146 67.1804 185.727C69.3045 184.147 72.3053 184.653 73.7501 186.862Z" fill="#FFB8B8"/>
<path d="M80.8389 233.808C81.0735 224.616 89.3104 217.361 92.4594 215.338L93.5585 217.041C89.5203 219.632 83.0494 226.479 82.8641 233.858L80.8389 233.808Z" fill="#F18B8B"/>
<path d="M67.6561 194.22L66.7812 194.729L78.6744 215.109L79.5492 214.6L67.6561 194.22Z" fill="#F18B8B"/>
<path d="M63.3689 200.538L62.4561 200.976L71.9086 220.652L72.8215 220.214L63.3689 200.538Z" fill="#F18B8B"/>
<path d="M281.882 216.942L281.931 217.72L282.388 241.434L283.549 301.656L211.381 282.273L246.144 259.423L245.798 250.354L244.625 218.855C244.205 208.626 252.133 199.965 262.37 199.447C272.608 198.966 281.277 206.825 281.882 216.942Z" fill="#FFB8B8"/>
<path d="M281.882 216.942L281.931 217.72L282.388 241.434C278.659 243.432 274.781 245.16 270.891 246.714C264.63 249.219 259.073 250.983 252.305 250.996C250.132 250.996 247.872 250.971 245.797 250.354L244.624 218.855C244.204 208.626 252.133 199.965 262.37 199.447C272.607 198.966 281.277 206.825 281.882 216.942Z" fill="#F18B8B"/>
<path d="M297.256 204.604C291.909 217.534 287.883 222.568 283.487 221.186C270.829 242.84 253.417 250.996 237.882 246.788C225.273 243.408 225.928 225.061 229.46 208.441C230.299 204.604 231.275 200.828 232.263 197.374C233.905 191.748 236.61 184.011 240.389 175.338C230.411 144.431 260.37 137.657 280.141 160.174C281.19 159.397 282.326 158.817 283.499 158.521C288.723 157.04 294.589 160.927 298.985 175.313C308.037 185.233 302.628 191.661 297.256 204.604Z" fill="#454975"/>
<path d="M290.206 174.486C288.563 171.451 285.525 167.688 280.153 160.174C281.203 159.397 282.339 158.817 283.512 158.521C286.106 163.382 289.798 170.957 290.206 174.486Z" fill="#3B3E63"/>
<path d="M293.12 209.058C287.057 221.261 277.659 215.77 276.819 210.872C271.904 218.028 268.718 219.867 266.532 220.089C264.347 220.323 258.258 216.474 255.64 215.635C252.998 214.759 239.821 218.583 229.51 208.466L229.473 208.441C230.312 204.604 231.288 200.829 232.276 197.374C233.918 191.748 236.623 184.012 240.402 175.338C245.996 168.244 263.075 154.573 283.068 189.761C281.462 196.547 280.326 201.766 278.882 205.246C288.625 193.475 299.183 196.881 293.12 209.058Z" fill="#FFB8B8"/>
<path d="M280.375 207.392C280.82 206.22 281.486 205.134 282.351 204.209C283.178 203.259 284.203 202.457 285.352 201.865C286.5 201.272 287.809 200.865 289.192 200.939C289.871 200.952 290.588 201.137 291.193 201.532C291.798 201.914 292.243 202.617 292.144 203.271C291.773 202.728 291.279 202.506 290.785 202.445C290.291 202.358 289.785 202.42 289.266 202.519C288.241 202.753 287.241 203.16 286.266 203.666C285.29 204.16 284.327 204.764 283.364 205.393C282.4 206.023 281.474 206.751 280.375 207.392Z" fill="#F18B8B"/>
<path d="M281.61 206.035C282.067 205.48 282.759 205.098 283.475 204.913C284.191 204.728 284.969 204.715 285.723 204.9C286.464 205.098 287.192 205.505 287.649 206.171C288.118 206.825 288.217 207.652 288.032 208.343C287.612 206.936 286.674 206.171 285.463 205.887C284.871 205.727 284.241 205.678 283.586 205.702C282.944 205.727 282.29 205.801 281.61 206.035Z" fill="#F18B8B"/>
<path d="M246.304 193.562C240.253 201.483 233.066 204.826 232.152 206.936C231.238 209.046 234.388 213.192 242.205 214.61C246.835 211.686 243.081 206.887 246.304 193.562Z" fill="#F18B8B"/>
<path d="M258.473 200.312C259.985 200.222 261.12 198.643 261.008 196.786C260.897 194.929 259.581 193.497 258.07 193.588C256.558 193.678 255.423 195.257 255.535 197.114C255.646 198.971 256.962 200.403 258.473 200.312Z" fill="#454975"/>
<path d="M241.426 194.956C241.081 196.782 239.586 198.028 238.104 197.744C236.623 197.461 235.696 195.746 236.042 193.92C236.388 192.093 237.882 190.847 239.364 191.131C240.846 191.427 241.772 193.13 241.426 194.956Z" fill="#454975"/>
<path d="M261.654 180.051C267.113 180.211 269.694 186.652 270.521 190.156C270.929 191.883 269.78 192.352 268.866 190.736C267.73 188.749 264.655 185.159 261.185 183.789C258.715 182.802 259.543 179.989 261.654 180.051Z" fill="#454975"/>
<path d="M246.057 177.373C241.451 175.486 237.598 178.755 235.647 181.482C234.622 182.926 235.387 184.357 236.943 183.345C238.857 182.099 241.055 180.557 244.785 180.914C247.415 181.174 248.02 178.188 246.057 177.373Z" fill="#454975"/>
<g clip-path="url(#clip1_1_1245)">
<path d="M245.72 218.95C245.71 219 245.71 219.05 245.7 219.11C244.48 228.81 232.92 229.8 232.07 217.95C232.01 217.34 231.99 216.68 232.01 216C235.2 216.12 242.88 218.07 245.72 218.95Z" fill="#F18B8B"/>
<path d="M245.72 218.95C245.71 219 245.71 219.05 245.7 219.11C244.39 219.44 242.97 219.65 241.46 219.73C237.67 219.92 234.24 219.21 232.07 217.95C232.01 217.34 231.99 216.68 232.01 216C235.2 216.12 242.88 218.07 245.72 218.95Z" fill="#F3EDFF"/>
</g>
<path d="M196.389 448.641C212.936 454.453 230.003 457.957 258.344 455.292C274.904 401.855 277.559 273.501 278.103 266.345C265.124 271.329 249.095 274.229 242.315 258.448C209.849 295.031 196.203 350.923 196.389 448.641Z" fill="white"/>
<path d="M282.598 252.661C265.05 262.778 253.997 293.513 251.083 340.46C248.169 387.406 244.563 430.306 245.748 444.31C246.946 458.314 251.12 480.93 276.238 482.941C301.356 484.952 338.404 486.248 338.404 486.248C338.404 486.248 308.865 305.086 307.864 294.241C306.864 283.396 303.246 266.381 282.598 252.661Z" fill="#9EB6EA"/>
<path d="M491.484 454.798C479.925 447.074 446.323 424.581 428.12 411.972C410.362 421.25 400.396 440.929 400.396 440.929C400.396 440.929 427.676 451.392 442.445 456.907C457.215 462.423 468.712 466.692 476.282 466.593C477.332 466.581 477.69 465.729 477.813 465.149L479.283 465.976C481.073 466.988 483.333 466.297 484.259 464.458C484.84 463.299 484.704 461.966 484.049 460.93L486.482 462.46C488.495 463.718 491.126 463.249 492.57 461.361C494.163 459.264 493.669 456.266 491.484 454.798Z" fill="#FFB8B8"/>
<path d="M437.543 419.474L478.888 430.121C481.283 430.738 482.74 433.144 482.197 435.538C481.629 438.055 479.085 439.597 476.591 438.943L451.88 432.515C451.905 432.515 432.331 429.159 437.543 419.474Z" fill="#FFB8B8"/>
<path d="M449.509 446.457C447.94 446.963 446.285 447.271 444.557 447.296L444.52 445.273C451.904 445.149 458.82 438.746 461.438 434.748L463.13 435.859C461.487 438.4 456.325 444.261 449.509 446.457Z" fill="#F18B8B"/>
<path d="M463.771 448.742L463.253 449.611L483.545 461.673L484.062 460.804L463.771 448.742Z" fill="#F18B8B"/>
<path d="M458.08 455.434L457.634 456.342L477.245 465.958L477.691 465.05L458.08 455.434Z" fill="#F18B8B"/>
<path d="M282.598 252.661C305.284 268.713 312.323 280.249 319.14 294.266C325.969 308.282 351.618 354.241 359.237 363.976C366.869 373.723 428.121 411.959 428.121 411.959L395.408 448.036C395.408 448.036 332.699 420.436 320.658 407.444C308.606 394.464 281.981 346.111 282.598 252.661Z" fill="#9EB6EA"/>
<path d="M245.97 255.586L246.205 261.594C232.51 276.647 221.89 303.162 216.036 337.19C209.38 375.723 206.824 416.698 206.564 450.615C206.416 473.947 184.83 473.651 174.16 465.693C176.432 434.983 185.324 360.867 190.14 338.227C194.746 316.524 204.107 253.501 245.97 255.586Z" fill="#9EB6EA"/>
<path d="M245.995 255.968L246.069 257.683C224.397 266.159 212.838 307.122 212.838 307.122C212.838 307.122 199.34 349.454 186.954 359.226C162.923 378.214 145.004 373.18 131.47 358.819C124.319 351.231 79.208 279.299 79.208 279.299L116.107 250.058L157.897 306.135C157.897 306.135 193.351 280.854 206.713 271.02C218.778 262.124 229.052 255.82 245.995 255.968Z" fill="#9EB6EA"/>
<path d="M289.133 335.979L287.246 336.714L309.975 394.985L311.862 394.25L289.133 335.979Z" fill="#BB4344"/>
<path d="M197.836 311.982L187.961 343.217L189.892 343.826L199.767 312.592L197.836 311.982Z" fill="#869CC4"/>
<path d="M77.2446 210.193L39.3574 172.34V204.765C39.3574 211.032 44.4453 216.116 50.7186 216.116H103.758C110.031 216.116 115.119 211.032 115.119 204.765V172.34L77.2446 210.193Z" fill="#3E4169"/>
<path d="M115.132 172.339V166.911C115.132 160.643 110.044 155.56 103.771 155.56H50.7313C44.458 155.56 39.3701 160.643 39.3701 166.911V172.339L77.2573 210.193L115.132 172.339Z" fill="#454975"/>
<path d="M107.871 176.843C115.577 176.843 121.825 170.601 121.825 162.901C121.825 155.201 115.577 148.959 107.871 148.959C100.164 148.959 93.916 155.201 93.916 162.901C93.916 170.601 100.164 176.843 107.871 176.843Z" fill="#9EB6EA"/>
<path d="M72.8975 190.958H48.0264V196.51H72.8975V190.958Z" fill="#A6AFE2"/>
<path d="M108.624 241.063L98.3373 199.656C97.7446 197.263 95.3488 195.77 92.9408 196.3C90.4215 196.843 88.8532 199.373 89.483 201.865L95.707 226.603C95.6946 226.603 98.8807 246.184 108.624 241.063Z" fill="#FFB8B8"/>
<path d="M299.627 211.032C298.121 214.906 295.601 218.015 292.638 220.026C288.846 222.63 284.327 223.456 280.239 221.877C272.953 219.064 269.816 209.613 273.25 200.803C276.658 191.994 285.339 187.133 292.638 189.958C292.675 189.97 292.724 189.983 292.761 190.007C299.948 192.895 303.023 202.272 299.627 211.032Z" fill="#A6AFE2"/>
<path d="M288.118 190.168C293.675 182.358 287.377 167.256 280.14 160.174C280.14 160.174 277.522 157.324 276.646 156.633C278.276 156.657 278.868 156.941 280.523 158.212C282.178 159.471 304.159 172.759 295.75 193.129C295.75 193.117 288.562 191.945 288.118 190.168Z" fill="#A6AFE2"/>
<path d="M299.627 211.032C298.12 214.906 295.601 218.016 292.637 220.027C282.449 222.322 274.447 212.118 281.424 200.076C284.487 194.807 288.55 191.575 292.736 190.008C299.948 192.895 303.023 202.272 299.627 211.032Z" fill="#BBC3ED"/>
<path d="M278.955 214.573C272.792 220.73 260.69 221.396 251.12 221.544C250.193 221.557 249.44 222.272 249.378 223.198C249.304 224.259 250.181 225.135 251.243 225.085C265.79 224.283 274.83 223.358 281.005 216.745L278.955 214.573Z" fill="#A6AFE2"/>
<path d="M251.17 226.986C253.236 226.986 254.911 225.312 254.911 223.247C254.911 221.183 253.236 219.509 251.17 219.509C249.103 219.509 247.428 221.183 247.428 223.247C247.428 225.312 249.103 226.986 251.17 226.986Z" fill="#EA5455"/>
<path d="M133.42 111.994C141.052 111.994 147.239 105.812 147.239 98.1873C147.239 90.5622 141.052 84.3809 133.42 84.3809C125.788 84.3809 119.602 90.5622 119.602 98.1873C119.602 105.812 125.788 111.994 133.42 111.994Z" fill="#DAD4F8"/>
<path d="M278.733 54.7687C278.733 57.8903 276.201 60.4319 273.065 60.4319C269.94 60.4319 267.396 57.9026 267.396 54.7687C267.396 51.6471 269.928 49.1055 273.065 49.1055C276.189 49.1055 278.733 51.6348 278.733 54.7687Z" fill="#DAD4F8"/>
<path d="M215.715 138.632C217.952 138.632 219.765 136.82 219.765 134.585C219.765 132.35 217.952 130.538 215.715 130.538C213.478 130.538 211.664 132.35 211.664 134.585C211.664 136.82 213.478 138.632 215.715 138.632Z" fill="#DAD4F8"/>
<path d="M332.797 262.322C332.797 264.778 330.809 266.776 328.339 266.776C325.881 266.776 323.881 264.79 323.881 262.322C323.881 259.867 325.869 257.868 328.339 257.868C330.809 257.868 332.797 259.867 332.797 262.322Z" fill="#DAD4F8"/>
<path d="M355.297 345.469V431.133C355.297 439.597 348.431 446.47 339.947 446.47H187.793C179.322 446.47 172.468 439.597 172.468 431.133V345.469C172.468 337.005 179.334 330.133 187.793 330.133H339.947C348.431 330.145 355.297 337.005 355.297 345.469Z" fill="#454975"/>
<path d="M303.974 446.469H248.859L246.908 382.052H280.844L303.974 446.469Z" fill="#393C61"/>
<path d="M321.509 473.626H292.736L280.844 382.052H246.908L235.016 473.626H206.242C203.859 473.626 201.933 475.551 201.933 477.932V482.164H325.794V477.932C325.807 475.551 323.88 473.626 321.509 473.626ZM276.311 427.95C276.311 434.81 270.742 440.374 263.876 440.374C257.01 440.374 251.44 434.81 251.44 427.95V422.768C251.44 415.908 257.01 410.343 263.876 410.343C270.742 410.343 276.311 415.908 276.311 422.768V427.95Z" fill="#A6AFE2"/>
<path d="M263.728 426.087C235.065 426.087 245.068 461.485 245.068 481.325" stroke="#F3EDFF" stroke-width="2.1742" stroke-miterlimit="10"/>
<path d="M405.607 153.943C399.087 153.943 392.925 154.758 387.454 156.189C384.651 156.929 382.688 159.446 382.688 162.346V204.555V209.983C382.688 214.03 386.429 217.016 390.393 216.177C395.098 215.178 400.236 214.623 405.62 214.623C414.104 214.623 422.007 215.992 428.565 218.349V204.567V157.669C421.995 155.325 414.091 153.943 405.607 153.943Z" fill="#454975"/>
<path d="M451.485 153.943C443.001 153.943 435.097 155.313 428.54 157.669V204.567V218.349C435.097 215.992 443.001 214.623 451.485 214.623C456.857 214.623 461.994 215.178 466.711 216.177C470.675 217.016 474.417 214.043 474.417 209.983V204.555V162.346C474.417 159.446 472.454 156.929 469.65 156.189C464.167 154.758 458.005 153.943 451.485 153.943Z" fill="#3E4169"/>
<path d="M473.157 487.999H37.5168C35.8744 487.999 34.5283 486.654 34.5283 485.026C34.5283 483.385 35.8744 482.04 37.5168 482.04H473.157C474.8 482.04 476.146 483.385 476.146 485.026C476.133 486.654 474.8 487.999 473.157 487.999Z" fill="#454975"/>
</g>
<defs>
<clipPath id="clip0_1_1245">
<rect width="530" height="488" fill="white"/>
</clipPath>
<clipPath id="clip1_1_1245">
<rect width="13.72" height="10.61" fill="white" transform="translate(232 216)"/>
</clipPath>
</defs>
</svg>
