<svg width="42" height="41" viewBox="0 0 42 41" fill="none" xmlns="http://www.w3.org/2000/svg">
<g id="apps 1" clip-path="url(#clip0_1_1189)">
<g id="Group">
<g id="Group_2">
<g id="Group_3">
<path id="Vector" d="M20.9941 0C32.3373 0 41.5645 9.19649 41.5645 20.5C41.5645 31.8035 32.3373 41 20.9941 41C9.65096 41 0.423801 31.8035 0.423801 20.5C0.423801 9.19649 9.65096 0 20.9941 0ZM20.9941 39.2917C31.3915 39.2917 39.8503 30.8618 39.8503 20.5C39.8503 10.1382 31.3915 1.70831 20.9941 1.70831C10.5968 1.70831 2.13797 10.1382 2.13797 20.5C2.13797 30.8618 10.5968 39.2917 20.9941 39.2917Z" fill="#FF4E4E"/>
<path id="Vector_2" d="M25.2793 8.54199H30.4219C31.8398 8.54199 32.9932 9.69143 32.9932 11.1045V16.2295C32.9932 17.6425 31.8398 18.792 30.4219 18.792H25.2793C23.8614 18.792 22.708 17.6425 22.708 16.2295V11.1045C22.708 9.69143 23.8614 8.54199 25.2793 8.54199ZM24.4223 16.2295C24.4223 16.7007 24.8073 17.0837 25.2794 17.0837H30.422C30.894 17.0837 31.2791 16.7008 31.2791 16.2295V11.1045C31.2791 10.6332 30.894 10.2503 30.422 10.2503H25.2794C24.8073 10.2503 24.4223 10.6332 24.4223 11.1045V16.2295Z" fill="#FF4E4E"/>
<path id="Vector_3" d="M11.5664 8.54199H16.709C18.1269 8.54199 19.2803 9.69143 19.2803 11.1045V16.2295C19.2803 17.6425 18.1269 18.792 16.709 18.792H11.5664C10.1485 18.792 8.99511 17.6425 8.99511 16.2295V11.1045C8.99511 9.69143 10.1485 8.54199 11.5664 8.54199ZM10.7093 16.2295C10.7093 16.7007 11.0943 17.0837 11.5664 17.0837H16.709C17.1811 17.0837 17.5661 16.7008 17.5661 16.2295V11.1045C17.5661 10.6332 17.1811 10.2503 16.709 10.2503H11.5664C11.0943 10.2503 10.7093 10.6332 10.7093 11.1045V16.2295Z" fill="#FF4E4E"/>
<path id="Vector_4" d="M25.2793 22.208H30.4219C31.8398 22.208 32.9932 23.3574 32.9932 24.7705V29.8955C32.9932 31.3086 31.8398 32.458 30.4219 32.458H25.2793C23.8614 32.458 22.708 31.3086 22.708 29.8955V24.7705C22.708 23.3575 23.8614 22.208 25.2793 22.208ZM24.4223 29.8955C24.4223 30.3668 24.8073 30.7497 25.2794 30.7497H30.422C30.894 30.7497 31.2791 30.3669 31.2791 29.8955V24.7705C31.2791 24.2992 30.894 23.9163 30.422 23.9163H25.2794C24.8073 23.9163 24.4223 24.2992 24.4223 24.7705V29.8955Z" fill="#FF4E4E"/>
<path id="Vector_5" d="M11.5664 22.208H16.709C18.1269 22.208 19.2803 23.3574 19.2803 24.7705V29.8955C19.2803 31.3086 18.1269 32.458 16.709 32.458H11.5664C10.1485 32.458 8.99511 31.3086 8.99511 29.8955V24.7705C8.99511 23.3575 10.1485 22.208 11.5664 22.208ZM10.7093 29.8955C10.7093 30.3668 11.0943 30.7497 11.5664 30.7497H16.709C17.1811 30.7497 17.5661 30.3669 17.5661 29.8955V24.7705C17.5661 24.2992 17.1811 23.9163 16.709 23.9163H11.5664C11.0943 23.9163 10.7093 24.2992 10.7093 24.7705V29.8955Z" fill="#FF4E4E"/>
</g>
</g>
</g>
</g>
<defs>
<clipPath id="clip0_1_1189">
<rect width="41.1407" height="41" fill="white" transform="matrix(-1 0 0 1 41.5645 0)"/>
</clipPath>
</defs>
</svg>
