<svg width="80" height="54" viewBox="0 0 80 54" fill="none" xmlns="http://www.w3.org/2000/svg">
<path d="M53.8753 8.95762H51.432H41.352H41.3271L41.3023 8.95638C41.291 8.95582 41.2797 8.95582 41.2684 8.95638L41.2683 8.95639C41.2235 8.95861 41.1798 8.96958 41.1397 8.98847C41.0996 9.00736 41.0641 9.03373 41.0349 9.06578L40.3174 8.41273L41.0349 9.06579C41.0057 9.09784 40.9835 9.13495 40.9692 9.17489C40.9548 9.21479 40.9486 9.25695 40.9507 9.29904C40.9528 9.34113 40.9633 9.38255 40.9816 9.42099C41 9.45949 41.026 9.49439 41.0584 9.52353C41.0908 9.55269 41.129 9.57551 41.171 9.59039C41.2129 9.60528 41.2576 9.61185 41.3023 9.60963L41.3271 9.60839H41.352H51.432H53.8753L52.1331 11.3214L50.4104 13.0153L50.3824 13.0428L50.3524 13.0681C50.3174 13.0974 50.2894 13.1333 50.2696 13.1731C50.2499 13.213 50.2387 13.2563 50.2367 13.3002C50.2347 13.3441 50.2418 13.3881 50.2578 13.4295C50.2737 13.4708 50.2983 13.5088 50.3303 13.5411C50.3622 13.5733 50.4009 13.5989 50.444 13.6161C50.4871 13.6332 50.5336 13.6414 50.5804 13.64C50.6271 13.6385 50.6729 13.6274 50.7148 13.6077L51.1416 14.512L50.7148 13.6077C50.7566 13.5879 50.7935 13.56 50.8232 13.526L50.8488 13.4967L50.8767 13.4695L54.9239 9.50993C54.9241 9.50975 54.9243 9.50957 54.9245 9.50939C54.9554 9.47893 54.9796 9.44305 54.9961 9.40395L55.9178 9.79181L54.9961 9.40395C55.0126 9.36464 55.0211 9.32265 55.0211 9.28035C55.0211 9.23807 55.0126 9.19607 54.9961 9.15676C54.9795 9.11743 54.9551 9.08135 54.9239 9.05078L50.8789 5.08812L50.8704 5.07988L50.8705 5.07983C50.8394 5.04866 50.802 5.02367 50.7603 5.00664L51.1365 4.08604L50.7603 5.00663C50.7187 4.98961 50.6738 4.98098 50.6284 4.98141L53.8753 8.95762ZM53.8753 8.95762L52.1331 7.24457L50.4104 5.55073L50.4048 5.54515L50.399 5.53967C50.3516 5.49449 50.3195 5.437 50.3058 5.37493L49.3291 5.58933M53.8753 8.95762L49.3291 5.58933M49.3291 5.58933L50.3058 5.37492C50.2922 5.31289 50.2975 5.24821 50.3211 5.18888C50.3448 5.12947 50.3861 5.07745 50.4408 5.04013L49.8814 4.22074L50.4408 5.04013C50.4955 5.00278 50.5608 4.98209 50.6283 4.98141L49.3291 5.58933ZM17.5307 22.8569L17.5245 22.857C16.9212 22.8607 16.3418 23.0972 15.9089 23.5184C15.9083 23.5189 15.9078 23.5194 15.9073 23.5199L11.6667 27.6293V25.1823C11.6667 24.5637 11.4194 23.9716 10.9811 23.5359C10.5431 23.1005 9.95024 22.857 9.33333 22.857H5.33333C4.37864 22.857 3.66666 22.1407 3.66666 21.2062V5.30154C3.66666 4.36707 4.37864 3.65077 5.33333 3.65077H32C32.9547 3.65077 33.6666 4.36707 33.6666 5.30154V21.2062C33.6666 22.1407 32.9547 22.857 32 22.857L17.5307 22.8569ZM17.3012 24.9541L17.3034 24.9521C17.3643 24.8927 17.447 24.858 17.5347 24.857H32C34.048 24.857 35.6666 23.2565 35.6666 21.2062V5.30154C35.6666 3.25125 34.048 1.65077 32 1.65077H5.33333C3.28536 1.65077 1.66666 3.25125 1.66666 5.30154V21.2062C1.66666 23.2565 3.28535 24.857 5.33333 24.857H9.33333C9.42366 24.857 9.5091 24.8927 9.57115 24.9544C9.633 25.0159 9.66666 25.098 9.66666 25.1823V29.9908V32.3524L11.3626 30.709L17.3012 24.9541ZM13.3333 10.9285C12.7164 10.9285 12.1236 11.172 11.6855 11.6075C11.2473 12.0431 11 12.6352 11 13.2539C11 13.8725 11.2473 14.4646 11.6855 14.9003C12.1236 15.3357 12.7164 15.5792 13.3333 15.5792C13.9502 15.5792 14.5431 15.3357 14.9811 14.9003C15.4194 14.4646 15.6667 13.8725 15.6667 13.2539C15.6667 12.6352 15.4194 12.0431 14.9811 11.6075C14.5431 11.172 13.9502 10.9285 13.3333 10.9285ZM13.0955 13.0259C13.1576 12.9642 13.243 12.9285 13.3333 12.9285C13.4237 12.9285 13.5091 12.9642 13.5711 13.0259C13.633 13.0874 13.6667 13.1695 13.6667 13.2539C13.6667 13.3382 13.633 13.4203 13.5711 13.4818C13.5091 13.5435 13.4237 13.5792 13.3333 13.5792C13.243 13.5792 13.1576 13.5435 13.0955 13.4818C13.0337 13.4204 13 13.3382 13 13.2539C13 13.1695 13.0337 13.0874 13.0955 13.0259ZM18.6667 10.9285C18.0497 10.9285 17.4569 11.172 17.0189 11.6075C16.5806 12.0431 16.3333 12.6352 16.3333 13.2539C16.3333 13.8725 16.5806 14.4646 17.0189 14.9003C17.4569 15.3357 18.0498 15.5792 18.6667 15.5792C19.2836 15.5792 19.8764 15.3357 20.3145 14.9003C20.7527 14.4646 21 13.8725 21 13.2539C21 12.6352 20.7527 12.0431 20.3145 11.6075C19.8764 11.172 19.2836 10.9285 18.6667 10.9285ZM18.4288 13.0259C18.4909 12.9642 18.5763 12.9285 18.6667 12.9285C18.757 12.9285 18.8424 12.9642 18.9045 13.0259C18.9663 13.0874 19 13.1695 19 13.2539C19 13.3382 18.9663 13.4203 18.9045 13.4818L19.6095 14.1911L18.9045 13.4818C18.8424 13.5435 18.757 13.5792 18.6667 13.5792C18.5763 13.5792 18.4909 13.5435 18.4288 13.4818C18.367 13.4203 18.3333 13.3382 18.3333 13.2539C18.3333 13.1695 18.367 13.0874 18.4288 13.0259ZM24 10.9285C23.3831 10.9285 22.7902 11.172 22.3522 11.6075C21.914 12.0431 21.6667 12.6352 21.6667 13.2539C21.6667 13.8725 21.914 14.4646 22.3522 14.9003C22.7902 15.3357 23.3831 15.5792 24 15.5792C24.6169 15.5792 25.2097 15.3357 25.6478 14.9003C26.086 14.4646 26.3333 13.8725 26.3333 13.2539C26.3333 12.6352 26.086 12.0431 25.6478 11.6075C25.2098 11.172 24.6169 10.9285 24 10.9285ZM23.7622 13.0259C23.8242 12.9642 23.9097 12.9285 24 12.9285C24.0903 12.9285 24.1758 12.9642 24.2378 13.0259C24.2997 13.0874 24.3333 13.1695 24.3333 13.2539C24.3333 13.3382 24.2997 13.4204 24.2378 13.4818L24.9428 14.1911L24.2378 13.4818C24.1758 13.5435 24.0903 13.5792 24 13.5792C23.9097 13.5792 23.8242 13.5435 23.7622 13.4818C23.7003 13.4203 23.6667 13.3382 23.6667 13.2539C23.6667 13.1695 23.7003 13.0874 23.7622 13.0259ZM9 26.5077V25.5077H8H5.33333C2.94664 25.5077 1 23.5641 1 21.2062V5.30154C1 2.94361 2.94664 1 5.33333 1H32C34.3867 1 36.3333 2.9436 36.3333 5.30154V21.2062C36.3333 23.5641 34.3867 25.5077 32 25.5077H18.08H17.6746L17.3836 25.79L9.5703 33.3713L9.56878 33.3727C9.52215 33.4182 9.46231 33.4495 9.39647 33.4619C9.33064 33.4743 9.26266 33.467 9.20133 33.4412C9.14008 33.4154 9.08883 33.3726 9.05336 33.3191C9.01795 33.2656 8.99961 33.2035 9 33.1406V33.1347V26.5077Z" stroke="#191E3A" stroke-width="2"/>
<path d="M68.6377 49.2643L70.3337 50.9077V48.5462V43.7377C70.3337 43.6533 70.3673 43.5712 70.4292 43.5097C70.4912 43.448 70.5767 43.4123 70.667 43.4123H74.667C76.715 43.4123 78.3336 41.8118 78.3336 39.7615V23.8569C78.3336 21.8066 76.715 20.2061 74.667 20.2061H48.0003C45.9524 20.2061 44.3337 21.8066 44.3337 23.8569V39.7615C44.3337 41.8118 45.9524 43.4123 48.0003 43.4123H62.4656C62.5533 43.4134 62.636 43.4481 62.697 43.5075L62.6991 43.5095L68.6377 49.2643ZM62.4758 41.4123V41.4123H62.4697H48.0003C47.0456 41.4123 46.3337 40.696 46.3337 39.7615V23.8569C46.3337 22.9224 47.0456 22.2061 48.0003 22.2061H74.667C75.6217 22.2061 76.3336 22.9224 76.3336 23.8569V39.7615C76.3336 40.696 75.6217 41.4123 74.667 41.4123H70.667C70.0501 41.4123 69.4572 41.6559 69.0192 42.0913C68.5809 42.5269 68.3337 43.119 68.3337 43.7377V46.1847L64.093 42.0753C64.0926 42.0749 64.0921 42.0744 64.0917 42.074C63.6588 41.6527 63.0793 41.416 62.4758 41.4123ZM56.0003 29.4838C55.3834 29.4838 54.7906 29.7274 54.3525 30.1628C53.9143 30.5984 53.667 31.1906 53.667 31.8092C53.667 32.4279 53.9143 33.02 54.3525 33.4556C54.7906 33.8911 55.3834 34.1346 56.0003 34.1346C56.6172 34.1346 57.2101 33.8911 57.6481 33.4556C58.0864 33.02 58.3337 32.4279 58.3337 31.8092C58.3337 31.1906 58.0864 30.5985 57.6481 30.1628C57.2101 29.7274 56.6172 29.4838 56.0003 29.4838ZM55.7625 31.5813C55.8246 31.5196 55.91 31.4838 56.0003 31.4838C56.0906 31.4838 56.1761 31.5196 56.2381 31.5813C56.3 31.6427 56.3337 31.7249 56.3337 31.8092C56.3337 31.8936 56.3 31.9757 56.2381 32.0372C56.1761 32.0989 56.0907 32.1346 56.0003 32.1346C55.91 32.1346 55.8246 32.0989 55.7625 32.0372C55.7006 31.9757 55.667 31.8936 55.667 31.8092C55.667 31.7249 55.7006 31.6427 55.7625 31.5813ZM61.3337 29.4838C60.7167 29.4838 60.1239 29.7274 59.6859 30.1628C59.2476 30.5984 59.0003 31.1906 59.0003 31.8092C59.0003 32.4279 59.2476 33.02 59.6859 33.4556C60.1239 33.8911 60.7167 34.1346 61.3337 34.1346C61.9506 34.1346 62.5434 33.8911 62.9815 33.4556C63.4197 33.02 63.667 32.4279 63.667 31.8092C63.667 31.1906 63.4197 30.5985 62.9815 30.1628C62.5434 29.7274 61.9506 29.4838 61.3337 29.4838ZM61.0958 31.5813C61.1579 31.5196 61.2433 31.4838 61.3337 31.4838C61.424 31.4838 61.5094 31.5196 61.5715 31.5813C61.6333 31.6427 61.667 31.7249 61.667 31.8092C61.667 31.8936 61.6333 31.9757 61.5715 32.0372C61.5094 32.0989 61.424 32.1346 61.3337 32.1346C61.2433 32.1346 61.1579 32.0989 61.0958 32.0372C61.034 31.9757 61.0003 31.8936 61.0003 31.8092C61.0003 31.7249 61.034 31.6427 61.0958 31.5813ZM66.667 29.4838C66.0501 29.4838 65.4572 29.7274 65.0192 30.1628C64.5809 30.5984 64.3336 31.1906 64.3336 31.8092C64.3336 32.4279 64.5809 33.02 65.0192 33.4556C65.4572 33.8911 66.0501 34.1346 66.667 34.1346C67.2839 34.1346 67.8767 33.8911 68.3148 33.4556C68.753 33.02 69.0003 32.4279 69.0003 31.8092C69.0003 31.1906 68.753 30.5984 68.3148 30.1628C67.8767 29.7274 67.2839 29.4838 66.667 29.4838ZM66.4292 31.5813C66.4912 31.5196 66.5767 31.4838 66.667 31.4838C66.7573 31.4838 66.8427 31.5196 66.9048 31.5813C66.9667 31.6427 67.0003 31.7249 67.0003 31.8092C67.0003 31.8936 66.9667 31.9757 66.9048 32.0372C66.8427 32.0989 66.7573 32.1346 66.667 32.1346C66.5766 32.1346 66.4912 32.0989 66.4292 32.0372C66.3673 31.9757 66.3336 31.8936 66.3336 31.8092C66.3336 31.7249 66.3673 31.6427 66.4292 31.5813ZM62.6167 44.3454L62.3257 44.0631H61.9203H48.0003C45.6136 44.0631 43.667 42.1195 43.667 39.7615V23.8569C43.667 21.499 45.6136 19.5554 48.0003 19.5554H74.667C77.0537 19.5554 79.0003 21.499 79.0003 23.8569V39.7615C79.0003 42.1195 77.0537 44.0631 74.667 44.0631H72.0003H71.0003V45.0631L71.0003 51.69L71.0003 51.6959C71.0007 51.7588 70.9824 51.8209 70.9469 51.8744C70.9115 51.928 70.8602 51.9708 70.799 51.9966C70.7377 52.0224 70.6697 52.0297 70.6038 52.0173C70.538 52.0049 70.4782 51.9735 70.4315 51.9281L70.43 51.9266L62.6167 44.3454Z" stroke="#25D4E3" stroke-width="2"/>
<path d="M29.1315 39.975L25.0864 36.0123C25.0863 36.0123 25.0863 36.0122 25.0862 36.0121C25.0862 36.0121 25.0862 36.0121 25.0861 36.0121C25.0551 35.9815 25.0308 35.9456 25.0142 35.9063C24.9977 35.867 24.9893 35.825 24.9893 35.7827C24.9893 35.7405 24.9977 35.6985 25.0142 35.6591L24.1029 35.2756L25.0142 35.6591C25.0308 35.6198 25.0552 35.5837 25.0864 35.5531L29.1315 31.5905L29.1315 31.5906L29.14 31.582C29.1999 31.522 29.2818 31.4861 29.3692 31.4836C29.4367 31.4828 29.5024 31.5021 29.558 31.5382L30.1032 30.6999L29.558 31.5382C29.6141 31.5747 29.6569 31.6265 29.6818 31.6861C29.7067 31.7456 29.7129 31.8109 29.6999 31.8736C29.6868 31.9364 29.6549 31.9947 29.6073 32.0406L29.6073 32.0406L29.6005 32.0473L27.8751 33.7411L26.1297 35.4547H28.5757H38.6557C38.746 35.4547 38.8314 35.4904 38.8935 35.5521C38.9554 35.6136 38.989 35.6957 38.989 35.7801C38.989 35.8644 38.9554 35.9466 38.8935 36.008C38.8314 36.0697 38.746 36.1055 38.6557 36.1055H28.5677H26.119L27.8677 37.8196L29.601 39.5187L29.6208 39.5382L29.6418 39.5565C29.6755 39.5861 29.7025 39.622 29.7214 39.6617C29.7402 39.7013 29.7506 39.7441 29.7522 39.7875C29.7537 39.8308 29.7463 39.8741 29.7303 39.9149C29.7143 39.9556 29.69 39.9931 29.6585 40.0249C29.627 40.0567 29.5889 40.0821 29.5464 40.0993C29.504 40.1164 29.4582 40.1248 29.412 40.1239C29.3658 40.1229 29.3205 40.1126 29.2789 40.0938C29.2372 40.0749 29.2003 40.048 29.1702 40.0151L29.1514 39.9945L29.1315 39.975Z" stroke="#25D4E3" stroke-width="2"/>
</svg>
