<svg width="80" height="52" viewBox="0 0 80 52" fill="none" xmlns="http://www.w3.org/2000/svg">
<path d="M72.3948 7.4419C67.9611 3.01937 62.0544 0.384054 55.8016 0.0387902C49.5489 -0.306473 43.3879 1.66249 38.4943 5.56998H20.462C20.1204 5.56998 19.7928 5.70568 19.5513 5.94723C19.3097 6.18878 19.174 6.51639 19.174 6.858C19.174 7.1996 19.3097 7.52721 19.5513 7.76876C19.7928 8.01031 20.1204 8.14601 20.462 8.14601H35.7465C34.3196 9.67982 33.088 11.3844 32.0799 13.2208H11.8238C11.4822 13.2208 11.1545 13.3565 10.913 13.598C10.6714 13.8396 10.5357 14.1672 10.5357 14.5088C10.5357 14.8504 10.6714 15.178 10.913 15.4196C11.1545 15.6611 11.4822 15.7968 11.8238 15.7968H30.8434C29.2842 19.6245 28.6744 23.7726 29.066 27.887H20.4792C20.1376 27.887 19.81 28.0227 19.5685 28.2642C19.3269 28.5058 19.1912 28.8334 19.1912 29.175C19.1912 29.5166 19.3269 29.8442 19.5685 30.0858C19.81 30.3273 20.1376 30.463 20.4792 30.463H29.4524C29.7834 32.126 30.2811 33.7513 30.9379 35.3145H11.8238C11.4822 35.3145 11.1545 35.4502 10.913 35.6918C10.6714 35.9333 10.5357 36.261 10.5357 36.6026C10.5357 36.9442 10.6714 37.2718 10.913 37.5133C11.1545 37.7549 11.4822 37.8906 11.8238 37.8906H32.2002C33.1765 39.6595 34.3645 41.3031 35.7379 42.785H8.69817C8.35657 42.785 8.02896 42.9207 7.78741 43.1623C7.54586 43.4038 7.41016 43.7314 7.41016 44.073C7.41016 44.4146 7.54586 44.7423 7.78741 44.9838C8.02896 45.2254 8.35657 45.3611 8.69817 45.3611H37.6442C37.8698 45.3583 38.0911 45.2992 38.2882 45.1893C43.3419 49.3802 49.8192 51.4568 56.3676 50.9855C62.916 50.5142 69.0292 47.5315 73.4307 42.6601C77.8323 37.7887 80.1818 31.4054 79.9888 24.8429C79.7957 18.2804 77.0751 12.0461 72.3948 7.4419ZM70.5744 41.6258C67.3745 44.8231 63.2985 46.9999 58.8617 47.881C54.4249 48.7622 49.8264 48.3081 45.6476 46.5761C41.4688 44.8442 37.8973 41.9123 35.3846 38.1509C32.8718 34.3895 31.5307 29.9675 31.5307 25.4441C31.5307 20.9206 32.8718 16.4986 35.3846 12.7372C37.8973 8.97585 41.4688 6.04387 45.6476 4.31196C49.8264 2.58004 54.4249 2.12595 58.8617 3.00708C63.2985 3.88821 67.3745 6.06501 70.5744 9.26229C74.8579 13.5583 77.2632 19.3774 77.2632 25.4441C77.2632 31.5107 74.8579 37.3298 70.5744 41.6258Z" fill="#191E3A"/>
<path d="M54.3973 6.28262C50.6084 6.28262 46.9046 7.40617 43.7542 9.51117C40.6039 11.6162 38.1484 14.6081 36.6985 18.1086C35.2485 21.6091 34.8692 25.461 35.6083 29.1771C36.3475 32.8932 38.1721 36.3066 40.8512 38.9858C43.5304 41.665 46.9439 43.4895 50.66 44.2287C54.3761 44.9679 58.2279 44.5885 61.7284 43.1385C65.2289 41.6886 68.2208 39.2332 70.3258 36.0828C72.4309 32.9324 73.5544 29.2286 73.5544 25.4397C73.5476 20.361 71.5271 15.4923 67.9359 11.9011C64.3447 8.30996 59.476 6.28944 54.3973 6.28262ZM55.6853 41.9263V40.4236C55.6853 40.082 55.5496 39.7544 55.3081 39.5128C55.0665 39.2713 54.7389 39.1356 54.3973 39.1356C54.0557 39.1356 53.7281 39.2713 53.4866 39.5128C53.245 39.7544 53.1093 40.082 53.1093 40.4236V41.9263C49.1797 41.6147 45.4895 39.9141 42.6998 37.1291C39.91 34.3441 38.2032 30.6568 37.885 26.7277H39.4134C39.755 26.7277 40.0826 26.592 40.3242 26.3505C40.5657 26.1089 40.7014 25.7813 40.7014 25.4397C40.7014 25.0981 40.5657 24.7705 40.3242 24.5289C40.0826 24.2874 39.755 24.1517 39.4134 24.1517H37.885C38.1956 20.2174 39.8994 16.523 42.69 13.7324C45.4806 10.9418 49.175 9.23802 53.1093 8.92735V10.4558C53.1093 10.7974 53.245 11.125 53.4866 11.3666C53.7281 11.6081 54.0557 11.7438 54.3973 11.7438C54.7389 11.7438 55.0665 11.6081 55.3081 11.3666C55.5496 11.125 55.6853 10.7974 55.6853 10.4558V8.92735C59.6196 9.23802 63.314 10.9418 66.1047 13.7324C68.8953 16.523 70.599 20.2174 70.9097 24.1517H69.3812C69.0396 24.1517 68.712 24.2874 68.4705 24.5289C68.2289 24.7705 68.0932 25.0981 68.0932 25.4397C68.0932 25.7813 68.2289 26.1089 68.4705 26.3505C68.712 26.592 69.0396 26.7277 69.3812 26.7277H70.9097C70.5915 30.6568 68.8846 34.3441 66.0949 37.1291C63.3052 39.9141 59.6149 41.6147 55.6853 41.9263Z" fill="#25D4E3"/>
<path d="M16.2376 29.1664C16.2376 28.8248 16.1019 28.4972 15.8603 28.2556C15.6188 28.0141 15.2912 27.8784 14.9496 27.8784H1.28802C0.946412 27.8784 0.618801 28.0141 0.377251 28.2556C0.135701 28.4972 0 28.8248 0 29.1664C0 29.508 0.135701 29.8356 0.377251 30.0772C0.618801 30.3187 0.946412 30.4544 1.28802 30.4544H14.9667C15.3054 30.4499 15.6286 30.3122 15.8664 30.0711C16.1043 29.8301 16.2376 29.505 16.2376 29.1664ZM7.59929 8.1374H14.9667C15.3083 8.1374 15.6359 8.0017 15.8775 7.76015C16.119 7.5186 16.2548 7.19099 16.2548 6.84939C16.2548 6.50778 16.119 6.18017 15.8775 5.93862C15.6359 5.69707 15.3083 5.56137 14.9667 5.56137H7.59929C7.25769 5.56137 6.93007 5.69707 6.68853 5.93862C6.44698 6.18017 6.31127 6.50778 6.31127 6.84939C6.31127 7.19099 6.44698 7.5186 6.68853 7.76015C6.93007 8.0017 7.25769 8.1374 7.59929 8.1374ZM6.19965 23.0354H23.1757C23.5173 23.0354 23.8449 22.8997 24.0865 22.6582C24.328 22.4166 24.4637 22.089 24.4637 21.7474C24.4637 21.4058 24.328 21.0782 24.0865 20.8367C23.8449 20.5951 23.5173 20.4594 23.1757 20.4594H6.19965C5.85804 20.4594 5.53043 20.5951 5.28888 20.8367C5.04733 21.0782 4.91163 21.4058 4.91163 21.7474C4.91163 22.089 5.04733 22.4166 5.28888 22.6582C5.53043 22.8997 5.85804 23.0354 6.19965 23.0354Z" fill="#25D4E3"/>
<path d="M52.7673 27.4685L58.1683 30.9032C58.4023 31.0543 58.5809 31.2771 58.6775 31.5383C58.7741 31.7995 58.7835 32.085 58.7042 32.3519C58.6249 32.6189 58.4612 32.853 58.2376 33.019C58.0141 33.1851 57.7427 33.2743 57.4642 33.2731C57.2211 33.2744 56.9827 33.2058 56.7773 33.0756L50.3973 28.9883C50.1286 28.8163 49.9333 28.5507 49.8492 28.243C49.7652 27.9352 49.7983 27.6072 49.9422 27.3225L56.0732 15.1894C56.2434 14.9243 56.505 14.7309 56.8082 14.6456C57.1115 14.5603 57.4355 14.5892 57.719 14.7266C58.0025 14.8641 58.2257 15.1008 58.3465 15.3917C58.4672 15.6827 58.4772 16.0079 58.3744 16.3057L52.7673 27.4685Z" fill="#191E3A"/>
</svg>
