<svg width="81" height="54" viewBox="0 0 81 54" fill="none" xmlns="http://www.w3.org/2000/svg">
<g id="Frame 1000001484">
<path id="Vector" d="M54.2581 9.48789H51.8148H41.7348H41.7099L41.6851 9.48666C41.6738 9.4861 41.6625 9.4861 41.6512 9.48666L41.6511 9.48666C41.6063 9.48889 41.5626 9.49985 41.5225 9.51875C41.4825 9.53764 41.4469 9.564 41.4177 9.59606L40.7002 8.943L41.4177 9.59607C41.3885 9.62811 41.3663 9.66523 41.352 9.70516C41.3377 9.74506 41.3314 9.78723 41.3335 9.82932C41.3357 9.8714 41.3461 9.91282 41.3644 9.95126C41.3828 9.98976 41.4088 10.0247 41.4412 10.0538C41.4736 10.083 41.5118 10.1058 41.5538 10.1207C41.5957 10.1356 41.6404 10.1421 41.6852 10.1399L41.71 10.1387H41.7348H51.8148H54.2581L52.5159 11.8517L50.7932 13.5456L50.7652 13.5731L50.7352 13.5983C50.7002 13.6277 50.6722 13.6635 50.6524 13.7034C50.6327 13.7433 50.6215 13.7866 50.6195 13.8305C50.6175 13.8744 50.6246 13.9184 50.6406 13.9597C50.6566 14.001 50.6811 14.0391 50.7131 14.0713C50.745 14.1036 50.7837 14.1292 50.8268 14.1464C50.8699 14.1635 50.9164 14.1717 50.9632 14.1702C51.0099 14.1688 51.0557 14.1577 51.0976 14.138L51.5244 15.0423L51.0976 14.138C51.1394 14.1182 51.1763 14.0903 51.206 14.0563L51.2317 14.027L51.2595 13.9997L55.3067 10.0402C55.3069 10.04 55.3071 10.0398 55.3073 10.0397C55.3382 10.0092 55.3624 9.97332 55.3789 9.93423L56.3006 10.3221L55.3789 9.93423C55.3954 9.89491 55.4039 9.85292 55.4039 9.81063C55.4039 9.76834 55.3954 9.72635 55.3789 9.68703C55.3623 9.64771 55.3379 9.61162 55.3067 9.58105L51.2617 5.61839L51.2533 5.61016L51.2533 5.61011C51.2222 5.57894 51.1848 5.55394 51.1432 5.53691L51.5194 4.61632L51.1431 5.53691C51.1015 5.51988 51.0566 5.51126 51.0112 5.51169L54.2581 9.48789ZM54.2581 9.48789L52.5159 7.77485L50.7932 6.081L50.7876 6.07543L50.7818 6.06994C50.7344 6.02476 50.7023 5.96728 50.6887 5.90521L49.7119 6.1196M54.2581 9.48789L49.7119 6.1196M49.7119 6.1196L50.6886 5.90519C50.675 5.84316 50.6803 5.77848 50.7039 5.71915C50.7276 5.65974 50.7689 5.60773 50.8236 5.57041L50.2642 4.75101L50.8236 5.5704C50.8783 5.53306 50.9436 5.51237 51.0112 5.51169L49.7119 6.1196ZM17.9135 23.3872L17.9073 23.3872C17.304 23.3909 16.7246 23.6275 16.2917 24.0487C16.2912 24.0492 16.2906 24.0497 16.2901 24.0502L12.0495 28.1596V25.7126C12.0495 25.0939 11.8022 24.5018 11.3639 24.0662C10.9259 23.6308 10.333 23.3872 9.71614 23.3872H5.71614C4.76145 23.3872 4.04948 22.6709 4.04948 21.7365V5.83182C4.04948 4.89734 4.76145 4.18105 5.71614 4.18105H32.3828C33.3375 4.18105 34.0495 4.89734 34.0495 5.83182V21.7365C34.0495 22.6709 33.3375 23.3872 32.3828 23.3872L17.9135 23.3872ZM17.684 25.4844L17.6862 25.4824C17.7471 25.423 17.8299 25.3883 17.9175 25.3872H32.3828C34.4308 25.3872 36.0495 23.7867 36.0495 21.7365V5.83182C36.0495 3.78152 34.4308 2.18105 32.3828 2.18105H5.71614C3.66817 2.18105 2.04948 3.78152 2.04948 5.83182V21.7365C2.04948 23.7868 3.66817 25.3872 5.71614 25.3872H9.71614C9.80648 25.3872 9.89191 25.423 9.95396 25.4846C10.0158 25.5461 10.0495 25.6283 10.0495 25.7126V30.5211V32.8826L11.7454 31.2392L17.684 25.4844ZM13.7161 11.4588C13.0992 11.4588 12.5064 11.7023 12.0683 12.1377C11.6301 12.5734 11.3828 13.1655 11.3828 13.7841C11.3828 14.4028 11.6301 14.9949 12.0683 15.4305C12.5064 15.866 13.0992 16.1095 13.7161 16.1095C14.333 16.1095 14.9259 15.866 15.3639 15.4305C15.8022 14.9949 16.0495 14.4028 16.0495 13.7841C16.0495 13.1655 15.8022 12.5734 15.3639 12.1377C14.9259 11.7023 14.333 11.4588 13.7161 11.4588ZM13.4783 13.5562C13.5404 13.4945 13.6258 13.4588 13.7161 13.4588C13.8065 13.4588 13.8919 13.4945 13.954 13.5562C14.0158 13.6177 14.0495 13.6998 14.0495 13.7841C14.0495 13.8685 14.0158 13.9506 13.954 14.0121C13.8919 14.0738 13.8065 14.1095 13.7161 14.1095C13.6258 14.1095 13.5404 14.0738 13.4783 14.0121C13.4165 13.9506 13.3828 13.8685 13.3828 13.7841C13.3828 13.6998 13.4165 13.6176 13.4783 13.5562ZM19.0495 11.4588C18.4326 11.4588 17.8397 11.7023 17.4017 12.1377C16.9634 12.5734 16.7161 13.1655 16.7161 13.7841C16.7161 14.4028 16.9634 14.9949 17.4017 15.4305C17.8397 15.866 18.4326 16.1095 19.0495 16.1095C19.6664 16.1095 20.2592 15.866 20.6973 15.4305C21.1355 14.9949 21.3828 14.4028 21.3828 13.7841C21.3828 13.1655 21.1355 12.5734 20.6973 12.1377C20.2592 11.7023 19.6664 11.4588 19.0495 11.4588ZM18.8116 13.5562C18.8737 13.4945 18.9591 13.4588 19.0495 13.4588C19.1398 13.4588 19.2252 13.4945 19.2873 13.5562C19.3491 13.6177 19.3828 13.6998 19.3828 13.7841C19.3828 13.8685 19.3491 13.9506 19.2873 14.0121L19.9923 14.7213L19.2873 14.0121C19.2252 14.0738 19.1398 14.1095 19.0495 14.1095C18.9591 14.1095 18.8737 14.0738 18.8117 14.0121C18.7498 13.9506 18.7161 13.8685 18.7161 13.7841C18.7161 13.6998 18.7498 13.6177 18.8116 13.5562ZM24.3828 11.4588C23.7659 11.4588 23.173 11.7023 22.735 12.1377C22.2968 12.5734 22.0495 13.1655 22.0495 13.7841C22.0495 14.4028 22.2968 14.9949 22.735 15.4305C23.173 15.866 23.7659 16.1095 24.3828 16.1095C24.9997 16.1095 25.5926 15.866 26.0306 15.4305C26.4688 14.9949 26.7161 14.4028 26.7161 13.7841C26.7161 13.1655 26.4688 12.5734 26.0306 12.1377C25.5926 11.7023 24.9997 11.4588 24.3828 11.4588ZM24.145 13.5562C24.207 13.4945 24.2925 13.4588 24.3828 13.4588C24.4731 13.4588 24.5586 13.4945 24.6206 13.5562C24.6825 13.6176 24.7161 13.6998 24.7161 13.7841C24.7161 13.8685 24.6825 13.9506 24.6206 14.0121L25.3256 14.7213L24.6206 14.0121C24.5586 14.0738 24.4731 14.1095 24.3828 14.1095C24.2925 14.1095 24.207 14.0738 24.145 14.0121C24.0831 13.9506 24.0495 13.8685 24.0495 13.7841C24.0495 13.6998 24.0831 13.6177 24.145 13.5562ZM9.38281 27.038V26.038H8.38281H5.71614C3.32945 26.038 1.38281 24.0944 1.38281 21.7365V5.83182C1.38281 3.47388 3.32945 1.53027 5.71614 1.53027H32.3828C34.7695 1.53027 36.7161 3.47388 36.7161 5.83182V21.7365C36.7161 24.0944 34.7695 26.038 32.3828 26.038H18.4628H18.0574L17.7664 26.3203L9.95311 33.9015L9.95159 33.903C9.90496 33.9484 9.84512 33.9798 9.77929 33.9922C9.71346 34.0046 9.64547 33.9973 9.58415 33.9715C9.52289 33.9457 9.47164 33.9029 9.43618 33.8493C9.40076 33.7958 9.38242 33.7338 9.38281 33.6708V33.6649V27.038Z" stroke="#C5CAE6" stroke-width="2"/>
<path id="Vector_2" d="M69.0206 49.7944L70.7165 51.4378V49.0763V44.2678C70.7165 44.1834 70.7501 44.1013 70.812 44.0398C70.874 43.9781 70.9595 43.9424 71.0498 43.9424H75.0498C77.0978 43.9424 78.7165 42.3419 78.7165 40.2916V24.387C78.7165 22.3367 77.0978 20.7362 75.0498 20.7362H48.3831C46.3352 20.7362 44.7165 22.3367 44.7165 24.387V40.2916C44.7165 42.3419 46.3352 43.9424 48.3831 43.9424H62.8484C62.9361 43.9435 63.0189 43.9782 63.0798 44.0375L63.0819 44.0396L69.0206 49.7944ZM62.8586 41.9424V41.9424H62.8525H48.3831C47.4284 41.9424 46.7165 41.2261 46.7165 40.2916V24.387C46.7165 23.4525 47.4284 22.7362 48.3831 22.7362H75.0498C76.0045 22.7362 76.7165 23.4525 76.7165 24.387V40.2916C76.7165 41.2261 76.0045 41.9424 75.0498 41.9424H71.0498C70.4329 41.9424 69.84 42.186 69.402 42.6214C68.9637 43.057 68.7165 43.6491 68.7165 44.2678V46.7148L64.4758 42.6054C64.4754 42.605 64.4749 42.6045 64.4745 42.6041C64.0416 42.1828 63.4621 41.9461 62.8586 41.9424ZM56.3831 30.0139C55.7662 30.0139 55.1734 30.2575 54.7353 30.6929C54.2971 31.1285 54.0498 31.7206 54.0498 32.3393C54.0498 32.958 54.2971 33.5501 54.7353 33.9857C55.1734 34.4212 55.7662 34.6647 56.3831 34.6647C57 34.6647 57.5929 34.4212 58.0309 33.9857C58.4692 33.5501 58.7165 32.958 58.7165 32.3393C58.7165 31.7207 58.4692 31.1285 58.0309 30.6929C57.5929 30.2575 57.0001 30.0139 56.3831 30.0139ZM56.1453 32.1113C56.2074 32.0497 56.2928 32.0139 56.3831 32.0139C56.4735 32.0139 56.5589 32.0496 56.621 32.1113C56.6828 32.1728 56.7165 32.255 56.7165 32.3393C56.7165 32.4237 56.6828 32.5058 56.621 32.5673C56.5589 32.629 56.4735 32.6647 56.3831 32.6647C56.2928 32.6647 56.2074 32.629 56.1453 32.5673C56.0835 32.5058 56.0498 32.4237 56.0498 32.3393C56.0498 32.255 56.0835 32.1728 56.1453 32.1113ZM61.7165 30.0139C61.0995 30.0139 60.5067 30.2575 60.0687 30.6929C59.6304 31.1285 59.3831 31.7206 59.3831 32.3393C59.3831 32.958 59.6304 33.5501 60.0687 33.9857C60.5067 34.4212 61.0996 34.6647 61.7165 34.6647C62.3334 34.6647 62.9262 34.4212 63.3643 33.9857C63.8025 33.5501 64.0498 32.958 64.0498 32.3393C64.0498 31.7207 63.8025 31.1285 63.3643 30.6929C62.9262 30.2575 62.3334 30.0139 61.7165 30.0139ZM61.4786 32.1113C61.5407 32.0496 61.6262 32.0139 61.7165 32.0139C61.8068 32.0139 61.8922 32.0497 61.9543 32.1113C62.0161 32.1728 62.0498 32.2549 62.0498 32.3393C62.0498 32.4237 62.0161 32.5058 61.9543 32.5673C61.8922 32.629 61.8068 32.6647 61.7165 32.6647C61.6261 32.6647 61.5407 32.629 61.4786 32.5673C61.4168 32.5058 61.3831 32.4237 61.3831 32.3393C61.3831 32.255 61.4168 32.1728 61.4786 32.1113ZM67.0498 30.0139C66.4329 30.0139 65.84 30.2575 65.402 30.6929C64.9638 31.1285 64.7165 31.7206 64.7165 32.3393C64.7165 32.958 64.9638 33.5501 65.402 33.9857C65.84 34.4212 66.4329 34.6647 67.0498 34.6647C67.6667 34.6647 68.2596 34.4212 68.6976 33.9857C69.1358 33.5501 69.3831 32.958 69.3831 32.3393C69.3831 31.7207 69.1358 31.1285 68.6976 30.6929C68.2596 30.2575 67.6667 30.0139 67.0498 30.0139ZM66.812 32.1113C66.874 32.0497 66.9595 32.0139 67.0498 32.0139C67.1401 32.0139 67.2255 32.0497 67.2876 32.1113C67.3495 32.1728 67.3831 32.255 67.3831 32.3393C67.3831 32.4237 67.3495 32.5058 67.2876 32.5673C67.2256 32.629 67.1401 32.6647 67.0498 32.6647C66.9595 32.6647 66.874 32.629 66.812 32.5673C66.7501 32.5058 66.7165 32.4237 66.7165 32.3393C66.7165 32.255 66.7501 32.1728 66.812 32.1113ZM62.9995 44.8755L62.7085 44.5932H62.3031H48.3831C45.9964 44.5932 44.0498 42.6496 44.0498 40.2916V24.387C44.0498 22.0291 45.9964 20.0854 48.3831 20.0854H75.0498C77.4365 20.0854 79.3831 22.0291 79.3831 24.387V40.2916C79.3831 42.6496 77.4365 44.5932 75.0498 44.5932H72.3831H71.3831V45.5932L71.3831 52.2201L71.3831 52.226C71.3835 52.2889 71.3652 52.351 71.3298 52.4045C71.2943 52.4581 71.2431 52.5009 71.1818 52.5267C71.1205 52.5525 71.0525 52.5598 70.9866 52.5474C70.9208 52.535 70.861 52.5036 70.8144 52.4582L70.8128 52.4567L62.9995 44.8755Z" stroke="#25D4E3" stroke-width="2"/>
<path id="Vector_3" d="M29.5143 40.505L25.4692 36.5424C25.4692 36.5423 25.4691 36.5423 25.4691 36.5422C25.469 36.5422 25.469 36.5421 25.469 36.5421C25.4379 36.5116 25.4136 36.4756 25.3971 36.4364C25.3805 36.397 25.3721 36.3551 25.3721 36.3128C25.3721 36.2705 25.3805 36.2285 25.3971 36.1892L24.4857 35.8057L25.3971 36.1892C25.4136 36.1499 25.438 36.1138 25.4692 36.0832L29.5143 32.1206L29.5143 32.1206L29.5228 32.1121C29.5827 32.052 29.6646 32.0162 29.752 32.0137C29.8195 32.0129 29.8852 32.0321 29.9408 32.0683L30.486 31.23L29.9408 32.0683C29.9969 32.1048 30.0397 32.1565 30.0646 32.2161C30.0895 32.2757 30.0957 32.341 30.0827 32.4037C30.0696 32.4665 30.0377 32.5248 29.9901 32.5707L29.9901 32.5706L29.9833 32.5773L28.2579 34.2712L26.5125 35.9847H28.9585H39.0385C39.1288 35.9847 39.2143 36.0205 39.2763 36.0822C39.3382 36.1437 39.3718 36.2258 39.3718 36.3101C39.3718 36.3945 39.3382 36.4766 39.2763 36.5381C39.2143 36.5998 39.1288 36.6355 39.0385 36.6355H28.9505H26.5019L28.2505 38.3496L29.9838 40.0488L30.0037 40.0682L30.0246 40.0866C30.0583 40.1162 30.0853 40.152 30.1042 40.1917C30.1231 40.2314 30.1335 40.2742 30.135 40.3175C30.1365 40.3609 30.1291 40.4042 30.1131 40.4449C30.0972 40.4857 30.0728 40.5232 30.0413 40.555C30.0098 40.5868 29.9717 40.6122 29.9292 40.6293C29.8868 40.6465 29.841 40.6549 29.7948 40.654C29.7486 40.653 29.7033 40.6427 29.6617 40.6239C29.62 40.605 29.5831 40.5781 29.553 40.5451L29.5342 40.5245L29.5143 40.505Z" stroke="#25D4E3" stroke-width="2"/>
</g>
</svg>
