<svg width="81" height="54" viewBox="0 0 81 54" fill="none" xmlns="http://www.w3.org/2000/svg">
<g id="Frame 1000001484">
<g id="fast-time">
<g id="Layer 2">
<path id="Vector" d="M72.3948 9.97217C67.9611 5.54965 62.0544 2.91433 55.8016 2.56906C49.5489 2.2238 43.3879 4.19277 38.4943 8.10025H20.462C20.1204 8.10025 19.7928 8.23596 19.5513 8.47751C19.3097 8.71906 19.174 9.04667 19.174 9.38827C19.174 9.72987 19.3097 10.0575 19.5513 10.299C19.7928 10.5406 20.1204 10.6763 20.462 10.6763H35.7465C34.3196 12.2101 33.088 13.9146 32.0799 15.7511H11.8238C11.4822 15.7511 11.1545 15.8868 10.913 16.1283C10.6714 16.3699 10.5357 16.6975 10.5357 17.0391C10.5357 17.3807 10.6714 17.7083 10.913 17.9498C11.1545 18.1914 11.4822 18.3271 11.8238 18.3271H30.8434C29.2842 22.1547 28.6744 26.3028 29.066 30.4173H20.4792C20.1376 30.4173 19.81 30.553 19.5685 30.7945C19.3269 31.0361 19.1912 31.3637 19.1912 31.7053C19.1912 32.0469 19.3269 32.3745 19.5685 32.616C19.81 32.8576 20.1376 32.9933 20.4792 32.9933H29.4524C29.7834 34.6562 30.2811 36.2816 30.9379 37.8448H11.8238C11.4822 37.8448 11.1545 37.9805 10.913 38.2221C10.6714 38.4636 10.5357 38.7912 10.5357 39.1328C10.5357 39.4744 10.6714 39.802 10.913 40.0436C11.1545 40.2851 11.4822 40.4208 11.8238 40.4208H32.2002C33.1765 42.1898 34.3645 43.8334 35.7379 45.3153H8.69817C8.35657 45.3153 8.02896 45.451 7.78741 45.6926C7.54586 45.9341 7.41016 46.2617 7.41016 46.6033C7.41016 46.9449 7.54586 47.2725 7.78741 47.5141C8.02896 47.7556 8.35657 47.8913 8.69817 47.8913H37.6442C37.8698 47.8885 38.0911 47.8295 38.2882 47.7196C43.3419 51.9105 49.8192 53.9871 56.3676 53.5158C62.916 53.0445 69.0292 50.0618 73.4307 45.1904C77.8322 40.319 80.1818 33.9356 79.9888 27.3731C79.7957 20.8106 77.075 14.5764 72.3948 9.97217ZM70.5744 44.1561C67.3745 47.3534 63.2985 49.5302 58.8617 50.4113C54.4249 51.2924 49.8264 50.8383 45.6476 49.1064C41.4688 47.3745 37.8973 44.4425 35.3846 40.6811C32.8718 36.9197 31.5307 32.4978 31.5307 27.9743C31.5307 23.4508 32.8718 19.0289 35.3846 15.2675C37.8973 11.5061 41.4688 8.57414 45.6476 6.84223C49.8264 5.11032 54.4249 4.65622 58.8617 5.53736C63.2985 6.41849 67.3745 8.59528 70.5744 11.7926C74.8579 16.0886 77.2632 21.9077 77.2632 27.9743C77.2632 34.0409 74.8579 39.8601 70.5744 44.1561Z" fill="#C5CAE6"/>
<path id="Vector_2" d="M54.3973 8.8125C50.6084 8.8125 46.9046 9.93604 43.7542 12.041C40.6039 14.1461 38.1484 17.138 36.6985 20.6385C35.2485 24.139 34.8692 27.9908 35.6083 31.7069C36.3475 35.423 38.1721 38.8365 40.8512 41.5157C43.5304 44.1948 46.9439 46.0194 50.66 46.7586C54.3761 47.4977 58.2279 47.1184 61.7284 45.6684C65.2289 44.2185 68.2208 41.763 70.3258 38.6127C72.4309 35.4623 73.5544 31.7585 73.5544 27.9696C73.5476 22.8909 71.5271 18.0222 67.9359 14.431C64.3447 10.8398 59.476 8.81932 54.3973 8.8125ZM55.6853 44.4562V42.9535C55.6853 42.6119 55.5496 42.2843 55.3081 42.0427C55.0665 41.8012 54.7389 41.6655 54.3973 41.6655C54.0557 41.6655 53.7281 41.8012 53.4866 42.0427C53.245 42.2843 53.1093 42.6119 53.1093 42.9535V44.4562C49.1797 44.1446 45.4895 42.444 42.6998 39.659C39.91 36.874 38.2032 33.1866 37.885 29.2576H39.4134C39.755 29.2576 40.0826 29.1219 40.3242 28.8803C40.5657 28.6388 40.7014 28.3112 40.7014 27.9696C40.7014 27.628 40.5657 27.3004 40.3242 27.0588C40.0826 26.8173 39.755 26.6816 39.4134 26.6816H37.885C38.1956 22.7473 39.8994 19.0528 42.69 16.2622C45.4806 13.4716 49.175 11.7679 53.1093 11.4572V12.9857C53.1093 13.3273 53.245 13.6549 53.4866 13.8964C53.7281 14.138 54.0557 14.2737 54.3973 14.2737C54.7389 14.2737 55.0665 14.138 55.3081 13.8964C55.5496 13.6549 55.6853 13.3273 55.6853 12.9857V11.4572C59.6196 11.7679 63.314 13.4716 66.1047 16.2622C68.8953 19.0528 70.599 22.7473 70.9097 26.6816H69.3812C69.0396 26.6816 68.712 26.8173 68.4705 27.0588C68.2289 27.3004 68.0932 27.628 68.0932 27.9696C68.0932 28.3112 68.2289 28.6388 68.4705 28.8803C68.712 29.1219 69.0396 29.2576 69.3812 29.2576H70.9097C70.5915 33.1866 68.8846 36.874 66.0949 39.659C63.3052 42.444 59.6149 44.1446 55.6853 44.4562Z" fill="#25D4E3"/>
<path id="Vector_3" d="M16.2376 31.6968C16.2376 31.3552 16.1019 31.0276 15.8603 30.7861C15.6188 30.5445 15.2912 30.4088 14.9496 30.4088H1.28802C0.946412 30.4088 0.618801 30.5445 0.377251 30.7861C0.135701 31.0276 0 31.3552 0 31.6968C0 32.0384 0.135701 32.366 0.377251 32.6076C0.618801 32.8491 0.946412 32.9848 1.28802 32.9848H14.9667C15.3054 32.9803 15.6286 32.8426 15.8664 32.6016C16.1043 32.3605 16.2376 32.0355 16.2376 31.6968ZM7.59929 10.6678H14.9667C15.3083 10.6678 15.6359 10.5321 15.8775 10.2906C16.119 10.049 16.2548 9.72141 16.2548 9.37981C16.2548 9.03821 16.119 8.7106 15.8775 8.46905C15.6359 8.2275 15.3083 8.0918 14.9667 8.0918H7.59929C7.25769 8.0918 6.93007 8.2275 6.68853 8.46905C6.44698 8.7106 6.31127 9.03821 6.31127 9.37981C6.31127 9.72141 6.44698 10.049 6.68853 10.2906C6.93007 10.5321 7.25769 10.6678 7.59929 10.6678ZM6.19965 25.5659H23.1757C23.5173 25.5659 23.8449 25.4302 24.0864 25.1886C24.328 24.9471 24.4637 24.6195 24.4637 24.2779C24.4637 23.9363 24.328 23.6086 24.0864 23.3671C23.8449 23.1255 23.5173 22.9898 23.1757 22.9898H6.19965C5.85804 22.9898 5.53043 23.1255 5.28888 23.3671C5.04733 23.6086 4.91163 23.9363 4.91163 24.2779C4.91163 24.6195 5.04733 24.9471 5.28888 25.1886C5.53043 25.4302 5.85804 25.5659 6.19965 25.5659Z" fill="#25D4E3"/>
</g>
<path id="Vector_4" d="M52.7673 29.9989L58.1683 33.4336C58.4023 33.5847 58.5809 33.8076 58.6775 34.0687C58.7741 34.3299 58.7835 34.6154 58.7042 34.8824C58.6249 35.1493 58.4612 35.3834 58.2376 35.5495C58.0141 35.7155 57.7427 35.8047 57.4642 35.8035C57.2211 35.8048 56.9827 35.7362 56.7773 35.6061L50.3973 31.5188C50.1286 31.3468 49.9333 31.0812 49.8492 30.7734C49.7652 30.4656 49.7983 30.1376 49.9422 29.8529L56.0732 17.7198C56.2434 17.4548 56.505 17.2613 56.8082 17.176C57.1115 17.0907 57.4355 17.1196 57.719 17.2571C58.0025 17.3946 58.2257 17.6312 58.3465 17.9222C58.4672 18.2131 58.4772 18.5383 58.3744 18.8361L52.7673 29.9989Z" fill="#C5CAE6"/>
</g>
</g>
</svg>
