<svg width="80" height="80" viewBox="0 0 80 80" fill="none" xmlns="http://www.w3.org/2000/svg">
<g clip-path="url(#clip0_969_75)">
<path fill-rule="evenodd" clip-rule="evenodd" d="M34.1224 70.6067C20.4661 70.6067 9.37496 59.4971 9.37496 45.8777C9.37496 32.2214 20.4661 21.1303 34.1224 21.1303C40.5999 21.1303 46.5053 23.6401 50.9159 27.7186L53.112 25.5409L54.5699 20.9458C48.8121 16.2214 41.5964 13.6378 34.1408 13.6378C16.3507 13.6378 1.90091 28.0876 1.90091 45.8777C1.90091 63.6309 16.3507 78.0992 34.1224 78.0992C51.894 78.0992 66.3438 63.6309 66.3438 45.8777C66.3438 38.4037 63.7602 31.1695 59.0174 25.4117L54.4407 26.8696L52.2446 29.0473C56.36 33.4763 58.8698 39.3818 58.8698 45.8777C58.8698 59.4971 47.7602 70.6067 34.1224 70.6067ZM72.5814 15.4833L66.4915 13.8593C66.1777 13.767 65.9009 13.5086 65.8271 13.1765L64.4799 7.43713L59.1097 12.8074L55.3634 24.5998L67.1927 20.872L72.5814 15.4833ZM66.0301 5.88695L67.5249 12.2168L74.1131 13.9515L77.2135 10.8512L71.1235 9.24566C70.7913 9.15339 70.533 8.89503 70.4407 8.56285L69.0935 2.82351L66.0301 5.88695ZM55.1789 19.0081C55.4926 18.03 57.2458 12.0138 57.6333 11.6263L68.9644 0.295257C69.4626 -0.203013 70.3669 0.0184401 70.5514 0.756618L72.157 7.56631L79.2619 9.46711C79.9632 9.65166 80.2216 10.5006 79.6864 11.0173L68.3554 22.3668C67.9863 22.7359 61.9332 24.5075 60.9551 24.8212C71.5664 38.3483 70.4961 57.7439 58.2423 69.9977C44.9182 83.3033 23.3265 83.3033 10.0024 69.9792C-3.32169 56.6551 -3.30324 35.0819 10.0209 21.7578C22.2746 9.48557 41.6333 8.43366 55.1789 19.0081ZM34.1039 46.8004C33.2919 46.8004 32.8675 45.7855 33.4396 45.1949L35.6356 42.9988C33.5134 41.8547 30.8928 43.4233 30.8928 45.8593C30.8928 47.6309 32.3323 49.0888 34.1224 49.0888C36.5584 49.0888 38.1085 46.4683 36.9644 44.3276L34.7683 46.5236C34.5837 46.7082 34.3438 46.8004 34.1039 46.8004ZM36.9828 41.6517L42.4084 36.2445C34.2331 29.1949 21.4257 35.0081 21.4257 45.8593C21.4257 52.8535 27.1281 58.5559 34.1224 58.5559C44.9551 58.5559 50.7867 45.7485 43.7371 37.5732L38.33 42.9804C40.6368 46.3391 38.2377 50.9711 34.1224 50.9711C31.3173 50.9711 29.0105 48.6828 29.0105 45.8777C29.0105 41.7808 33.6241 39.3449 36.9828 41.6517ZM43.7187 34.9342L49.6056 29.0473C45.5272 25.301 40.0832 22.9942 34.1224 22.9942C21.4995 22.9942 11.2389 33.2549 11.2389 45.8777C11.2389 58.4821 21.4995 68.7428 34.1224 68.7428C46.7268 68.7428 56.9874 58.4821 56.9874 45.8777C56.9874 39.8985 54.6806 34.4544 50.9344 30.376L45.0474 36.2445C53.2781 45.6009 46.6529 60.4383 34.1224 60.4383C26.0762 60.4383 19.5618 53.9054 19.5618 45.8777C19.5618 33.3472 34.3807 26.722 43.7187 34.9342Z" fill="#191E3A"/>
<path fill-rule="evenodd" clip-rule="evenodd" d="M42.4085 36.2445C34.2332 29.1949 21.4258 35.0081 21.4258 45.8593C21.4258 52.8535 27.1282 58.5559 34.1224 58.5559C44.9552 58.5559 50.7868 45.7486 43.7372 37.5732L38.33 42.9804C40.6369 46.3391 38.2378 50.9712 34.1224 50.9712C31.3174 50.9712 29.0106 48.6828 29.0106 45.8777C29.0106 41.7809 33.6242 39.3449 36.9829 41.6517L42.4085 36.2445Z" fill="#25D4E3"/>
<path fill-rule="evenodd" clip-rule="evenodd" d="M34.1218 22.9942C21.499 22.9942 11.2383 33.2549 11.2383 45.8777C11.2383 58.4821 21.499 68.7428 34.1218 68.7428C46.7262 68.7428 56.9868 58.4821 56.9868 45.8777C56.9868 39.8985 54.68 34.4544 50.9338 30.376L45.0468 36.2445C53.2775 45.6009 46.6524 60.4383 34.1218 60.4383C26.0757 60.4383 19.5612 53.9054 19.5612 45.8777C19.5612 33.3472 34.3801 26.722 43.7181 34.9343L49.6051 29.0473C45.5266 25.301 40.0826 22.9942 34.1218 22.9942Z" fill="white"/>
<path fill-rule="evenodd" clip-rule="evenodd" d="M34.1403 13.6378C16.3502 13.6378 1.90039 28.0876 1.90039 45.8777C1.90039 63.6309 16.3502 78.0992 34.1218 78.0992C51.8935 78.0992 66.3433 63.6309 66.3433 45.8777C66.3433 38.4037 63.7597 31.1695 59.0169 25.4118L54.4402 26.8697L52.2441 29.0473C56.3595 33.4763 58.8693 39.3818 58.8693 45.8777C58.8693 59.4971 47.7597 70.6067 34.1218 70.6067C20.4656 70.6067 9.37444 59.4971 9.37444 45.8777C9.37444 32.2214 20.4656 21.1303 34.1218 21.1303C40.5994 21.1303 46.5048 23.6401 50.9154 27.7186L53.1115 25.5409L54.5694 20.9458C48.8116 16.2214 41.5959 13.6378 34.1403 13.6378Z" fill="#25D4E3"/>
<path fill-rule="evenodd" clip-rule="evenodd" d="M35.6354 42.9989C33.5131 41.8547 30.8926 43.4233 30.8926 45.8593C30.8926 47.6309 32.332 49.0888 34.1221 49.0888C36.5581 49.0888 38.1083 46.4683 36.9641 44.3276L34.768 46.5237C34.5835 46.7082 34.3436 46.8005 34.1037 46.8005C33.2917 46.8005 32.8672 45.7855 33.4393 45.1949L35.6354 42.9989Z" fill="white"/>
<path fill-rule="evenodd" clip-rule="evenodd" d="M59.1095 12.8074L55.3633 24.5998L67.1926 20.872L72.5813 15.4833L66.4913 13.8593C66.1776 13.767 65.9008 13.5086 65.8269 13.1765L64.4798 7.43713L59.1095 12.8074Z" fill="#191E3A"/>
<path fill-rule="evenodd" clip-rule="evenodd" d="M66.0303 5.88695L67.5251 12.2168L74.1133 13.9515L77.2137 10.8512L71.1237 9.24566C70.7915 9.15339 70.5332 8.89503 70.4409 8.56285L69.0937 2.82352L66.0303 5.88695Z" fill="white"/>
</g>
<defs>
<clipPath id="clip0_969_75">
<rect width="80" height="80" fill="white"/>
</clipPath>
</defs>
</svg>
