<svg width="54" height="55" viewBox="0 0 54 55" fill="none" xmlns="http://www.w3.org/2000/svg">
<g id="target 1" clip-path="url(#clip0_1_1032)">
<path id="Vector" fill-rule="evenodd" clip-rule="evenodd" d="M30.9672 48.1898C40.1852 48.1898 47.6717 40.6909 47.6717 31.4978C47.6717 22.2798 40.1852 14.7933 30.9672 14.7933C26.5949 14.7933 22.6088 16.4874 19.6316 19.2403L18.1492 17.7704L17.1652 14.6687C21.0517 11.4798 25.9222 9.73584 30.9548 9.73584C42.9631 9.73584 52.7167 19.4895 52.7167 31.4978C52.7167 43.4812 42.9631 53.2473 30.9672 53.2473C18.9714 53.2473 9.21775 43.4812 9.21775 31.4978C9.21775 26.4528 10.9617 21.5697 14.1631 17.6832L17.2523 18.6673L18.7347 20.1372C15.9568 23.1268 14.2627 27.113 14.2627 31.4978C14.2627 40.6909 21.7617 48.1898 30.9672 48.1898ZM5.00737 10.9815L9.11809 9.88532C9.32986 9.82303 9.51671 9.64864 9.56654 9.42442L10.4759 5.55037L14.1008 9.17528L16.6295 17.1351L8.64474 14.6189L5.00737 10.9815ZM9.42951 4.504L8.42052 8.77667L3.97346 9.9476L1.88072 7.85487L5.99145 6.77113C6.21567 6.70885 6.39007 6.53445 6.45235 6.31023L7.36169 2.43618L9.42951 4.504ZM16.7541 13.3607C16.5423 12.7005 15.3589 8.63964 15.0973 8.37805L7.44889 0.729608C7.11256 0.393275 6.50218 0.542756 6.37761 1.04103L5.29387 5.63757L0.49802 6.92061C0.0246635 7.04518 -0.149731 7.61819 0.211515 7.96698L7.85996 15.6279C8.1091 15.877 12.1949 17.0729 12.8551 17.2846C5.69249 26.4154 6.41498 39.5075 14.6863 47.7787C23.68 56.7601 38.2544 56.7601 47.2482 47.7663C56.242 38.7725 56.2295 24.2106 47.2357 15.2168C38.9645 6.93307 25.8973 6.22303 16.7541 13.3607ZM30.9797 32.1206C31.5278 32.1206 31.8143 31.4355 31.4281 31.0369L29.9458 29.5545C31.3783 28.7822 33.1472 29.841 33.1472 31.4853C33.1472 32.6812 32.1755 33.6652 30.9672 33.6652C29.3229 33.6652 28.2766 31.8964 29.0489 30.4514L30.5312 31.9338C30.6558 32.0583 30.8177 32.1206 30.9797 32.1206ZM29.0364 28.6452L25.3742 24.9954C30.8925 20.2369 39.5375 24.1607 39.5375 31.4853C39.5375 36.2064 35.6883 40.0556 30.9672 40.0556C23.6551 40.0556 19.7188 31.4106 24.4773 25.8922L28.1271 29.5421C26.57 31.8092 28.1894 34.9358 30.9672 34.9358C32.8607 34.9358 34.4177 33.3912 34.4177 31.4978C34.4177 28.7324 31.3036 27.0881 29.0364 28.6452ZM24.4897 24.1109L20.516 20.1372C23.269 17.6085 26.9437 16.0514 30.9672 16.0514C39.4876 16.0514 46.4136 22.9774 46.4136 31.4978C46.4136 40.0057 39.4876 46.9317 30.9672 46.9317C22.4593 46.9317 15.5333 40.0057 15.5333 31.4978C15.5333 27.4618 17.0904 23.787 19.6191 21.0341L23.5928 24.9954C18.0371 31.3109 22.5091 41.3261 30.9672 41.3261C36.3984 41.3261 40.7956 36.9165 40.7956 31.4978C40.7956 23.0396 30.7928 18.5677 24.4897 24.1109Z" fill="#C5CAE6"/>
<path id="Vector_2" fill-rule="evenodd" clip-rule="evenodd" d="M25.3748 24.9951C30.8931 20.2366 39.5381 24.1605 39.5381 31.4851C39.5381 36.2062 35.689 40.0553 30.9678 40.0553C23.6557 40.0553 19.7194 31.4103 24.4779 25.892L28.1277 29.5418C26.5706 31.809 28.19 34.9356 30.9678 34.9356C32.8613 34.9356 34.4184 33.391 34.4184 31.4975C34.4184 28.7321 31.3042 27.0879 29.037 28.645L25.3748 24.9951Z" fill="#25D4E3"/>
<path id="Vector_3" fill-rule="evenodd" clip-rule="evenodd" d="M30.9677 16.0513C39.4881 16.0513 46.4141 22.9772 46.4141 31.4976C46.4141 40.0056 39.4881 46.9315 30.9677 46.9315C22.4597 46.9315 15.5338 40.0056 15.5338 31.4976C15.5338 27.4616 17.0909 23.7869 19.6196 21.034L23.5933 24.9952C18.0376 31.3108 22.5096 41.326 30.9677 41.326C36.3988 41.326 40.7961 36.9163 40.7961 31.4976C40.7961 23.0395 30.7933 18.5675 24.4902 24.1108L20.5165 20.1371C23.2694 17.6084 26.9442 16.0513 30.9677 16.0513Z" fill="#150B36"/>
<path id="Vector_4" fill-rule="evenodd" clip-rule="evenodd" d="M30.9549 9.73584C42.9632 9.73584 52.7168 19.4895 52.7168 31.4978C52.7168 43.4812 42.9632 53.2473 30.9673 53.2473C18.9715 53.2473 9.21783 43.4812 9.21783 31.4978C9.21783 26.4528 10.9618 21.5698 14.1632 17.6832L17.2524 18.6673L18.7348 20.1372C15.9569 23.1268 14.2628 27.113 14.2628 31.4978C14.2628 40.6909 21.7618 48.1898 30.9673 48.1898C40.1853 48.1898 47.6718 40.6909 47.6718 31.4978C47.6718 22.2798 40.1853 14.7933 30.9673 14.7933C26.595 14.7933 22.6088 16.4874 19.6317 19.2403L18.1493 17.7704L17.1652 14.6687C21.0517 11.4798 25.9223 9.73584 30.9549 9.73584Z" fill="#25D4E3"/>
<path id="Vector_5" fill-rule="evenodd" clip-rule="evenodd" d="M29.9461 29.5543C31.3786 28.782 33.1475 29.8408 33.1475 31.4851C33.1475 32.681 32.1758 33.6651 30.9675 33.6651C29.3232 33.6651 28.2769 31.8962 29.0492 30.4512L30.5315 31.9336C30.6561 32.0581 30.818 32.1204 30.98 32.1204C31.5281 32.1204 31.8146 31.4353 31.4284 31.0367L29.9461 29.5543Z" fill="#150B36"/>
<path id="Vector_6" fill-rule="evenodd" clip-rule="evenodd" d="M14.1012 9.17521L16.6299 17.1351L8.64511 14.6188L5.00774 10.9814L9.11846 9.88524C9.33023 9.82296 9.51708 9.64856 9.56691 9.42434L10.4762 5.55029L14.1012 9.17521Z" fill="#C5CAE6"/>
<path id="Vector_7" fill-rule="evenodd" clip-rule="evenodd" d="M9.42969 4.50386L8.42069 8.77652L3.97363 9.94745L1.8809 7.85472L5.99163 6.77098C6.21585 6.7087 6.39024 6.53431 6.45252 6.31008L7.36187 2.43604L9.42969 4.50386Z" fill="#150B36"/>
</g>
<defs>
<clipPath id="clip0_1_1032">
<rect width="54" height="54" fill="white" transform="matrix(-1 0 0 1 54 0.530273)"/>
</clipPath>
</defs>
</svg>
