<svg width="42" height="41" viewBox="0 0 42 41" fill="none" xmlns="http://www.w3.org/2000/svg">
<g id="coding 1">
<g id="Group">
<path id="Vector" d="M12.5268 0.640625H29.2402C29.9219 0.641515 30.5754 0.911778 31.0574 1.39215C31.5394 1.87252 31.8106 2.52378 31.8115 3.20312V37.7969C31.8106 38.4762 31.5394 39.1275 31.0574 39.6079C30.5754 40.0882 29.9219 40.3585 29.2402 40.3594H12.5268C11.8452 40.3585 11.1917 40.0882 10.7097 39.6079C10.2276 39.1275 9.95645 38.4762 9.95555 37.7969V3.20312C9.95645 2.52378 10.2276 1.87252 10.7097 1.39215C11.1917 0.911778 11.8452 0.641515 12.5268 0.640625ZM17.8751 1.92188L18.2367 3.20312H23.5954L23.9169 1.92188H17.8751ZM11.2412 37.7969C11.2416 38.1365 11.3772 38.4622 11.6182 38.7024C11.8593 38.9426 12.186 39.0777 12.5268 39.0781H29.2402C29.5811 39.0777 29.9078 38.9426 30.1488 38.7024C30.3898 38.4622 30.5254 38.1365 30.5259 37.7969V3.20312C30.5254 2.86345 30.3898 2.53782 30.1488 2.29764C29.9078 2.05745 29.5811 1.92232 29.2402 1.92188H25.2427L24.7212 3.9991C24.6864 4.13769 24.6062 4.26073 24.4932 4.34866C24.3802 4.43658 24.241 4.48435 24.0977 4.48438H17.7498C17.6097 4.48437 17.4734 4.43877 17.3618 4.35449C17.2501 4.27022 17.1691 4.15189 17.1311 4.01752L16.5397 1.92188H12.5268C12.186 1.92232 11.8593 2.05745 11.6182 2.29764C11.3772 2.53782 11.2416 2.86345 11.2412 3.20312V37.7969Z" fill="#6E00FA"/>
<path id="Vector_2" d="M24.0977 36.5156H28.5974C28.7679 36.5156 28.9314 36.5831 29.052 36.7033C29.1725 36.8234 29.2402 36.9863 29.2402 37.1562C29.2402 37.3262 29.1725 37.4891 29.052 37.6092C28.9314 37.7294 28.7679 37.7969 28.5974 37.7969H24.0977C23.9272 37.7969 23.7637 37.7294 23.6431 37.6092C23.5226 37.4891 23.4548 37.3262 23.4548 37.1562C23.4548 36.9863 23.5226 36.8234 23.6431 36.7033C23.7637 36.5831 23.9272 36.5156 24.0977 36.5156Z" fill="#6E00FA"/>
<path id="Vector_3" d="M21.5259 36.5156H22.1687C22.3392 36.5156 22.5027 36.5831 22.6232 36.7033C22.7438 36.8234 22.8115 36.9863 22.8115 37.1562C22.8115 37.3262 22.7438 37.4891 22.6232 37.6092C22.5027 37.7294 22.3392 37.7969 22.1687 37.7969H21.5259C21.3554 37.7969 21.1919 37.7294 21.0713 37.6092C20.9508 37.4891 20.8831 37.3262 20.8831 37.1562C20.8831 36.9863 20.9508 36.8234 21.0713 36.7033C21.1919 36.5831 21.3554 36.5156 21.5259 36.5156Z" fill="#6E00FA"/>
<path id="Vector_4" d="M18.6246 16.7475C18.697 16.7043 18.7772 16.6756 18.8607 16.6632C18.9442 16.6508 19.0293 16.655 19.1112 16.6754C19.1931 16.6958 19.2702 16.7321 19.338 16.7821C19.4058 16.8322 19.4631 16.8951 19.5065 16.9673L23.3635 23.3735C23.4512 23.5192 23.4772 23.6937 23.4359 23.8585C23.3945 24.0234 23.2892 24.1651 23.143 24.2525C22.9968 24.3399 22.8217 24.3659 22.6563 24.3246C22.4909 24.2834 22.3487 24.1784 22.261 24.0327L18.4041 17.6265C18.3607 17.5543 18.3319 17.4744 18.3195 17.3912C18.307 17.308 18.3112 17.2231 18.3317 17.1415C18.3521 17.0599 18.3885 16.9831 18.4388 16.9155C18.4891 16.8479 18.5522 16.7908 18.6246 16.7475Z" fill="#6E00FA"/>
<path id="Vector_5" d="M16.525 16.8966C16.5778 16.8309 16.643 16.7762 16.717 16.7357C16.7909 16.6951 16.8722 16.6694 16.9561 16.6602C17.1256 16.6414 17.2956 16.6906 17.4287 16.7968C17.5619 16.9029 17.6472 17.0575 17.666 17.2264C17.6848 17.3953 17.6355 17.5647 17.5289 17.6974L15.2791 20.5001L17.5289 23.3029C17.6355 23.4355 17.6848 23.605 17.666 23.7739C17.6472 23.9428 17.5619 24.0973 17.4287 24.2035C17.2956 24.3097 17.1256 24.3588 16.9561 24.3401C16.7866 24.3214 16.6316 24.2363 16.525 24.1036L13.9537 20.9005C13.8624 20.7869 13.8127 20.6457 13.8127 20.5001C13.8127 20.3546 13.8624 20.2134 13.9537 20.0997L16.525 16.8966Z" fill="#6E00FA"/>
<path id="Vector_6" d="M25.2428 24.1037C25.1362 24.2363 24.9811 24.3214 24.8117 24.3401C24.6422 24.3588 24.4722 24.3097 24.339 24.2035C24.2059 24.0973 24.1206 23.9428 24.1018 23.7739C24.083 23.605 24.1323 23.4355 24.2388 23.3029L26.4887 20.5001L24.2388 17.6974C24.1861 17.6317 24.1468 17.5563 24.1233 17.4755C24.0998 17.3947 24.0925 17.31 24.1018 17.2264C24.1111 17.1428 24.1368 17.0618 24.1775 16.9881C24.2182 16.9143 24.2731 16.8493 24.339 16.7968C24.405 16.7442 24.4806 16.705 24.5617 16.6816C24.6428 16.6582 24.7277 16.6509 24.8117 16.6602C24.8956 16.6694 24.9768 16.6951 25.0508 16.7357C25.1248 16.7762 25.19 16.8309 25.2428 16.8966L27.8141 20.0997C27.9053 20.2134 27.9551 20.3546 27.9551 20.5001C27.9551 20.6457 27.9053 20.7869 27.8141 20.9005L25.2428 24.1037Z" fill="#6E00FA"/>
</g>
</g>
</svg>
