<svg width="73" height="65" viewBox="0 0 73 65" fill="none" xmlns="http://www.w3.org/2000/svg">
<rect width="72.2222" height="65" rx="10" fill="#25D4E3"/>
<rect width="72.2222" height="65" rx="10" fill="url(#paint0_radial_969_453)" fill-opacity="0.7"/>
<path d="M46.0057 12.0371H25.4515C22.0684 12.0371 19.2598 14.8457 19.2598 18.2289V47.9749C19.2598 51.3581 22.0684 54.1667 25.4515 54.1667H46.0057C49.3888 54.1667 52.1975 51.3581 52.1975 47.9749V18.2289C52.1975 14.8457 49.4527 12.0371 46.0057 12.0371ZM50.9208 47.9749C50.9208 50.6559 48.6867 52.8901 46.0057 52.8901H25.4515C22.7706 52.8901 20.5364 50.6559 20.5364 47.9749V18.2289C20.5364 15.5479 22.7706 13.3137 25.4515 13.3137H46.0057C48.6867 13.3137 50.9208 15.5479 50.9208 18.2289V47.9749Z" fill="white"/>
<path d="M46.7085 31.1231H35.3463C34.9633 31.1231 34.7079 31.3784 34.7079 31.7614C34.7079 32.1444 34.9633 32.3997 35.3463 32.3997H46.7085C47.0915 32.3997 47.3468 32.1444 47.3468 31.7614C47.3468 31.3784 47.0915 31.1231 46.7085 31.1231ZM35.3463 36.0382H42.2402C42.6232 36.0382 42.8785 35.7829 42.8785 35.3999C42.8785 35.0169 42.6232 34.7616 42.2402 34.7616H35.3463C34.9633 34.7616 34.7079 35.0169 34.7079 35.3999C34.7079 35.7829 34.9633 36.0382 35.3463 36.0382ZM30.1758 41.081H26.4097C25.133 41.081 24.1117 42.1023 24.1117 43.379V47.1451C24.1117 48.4218 25.133 49.4431 26.4097 49.4431H30.1758C31.4525 49.4431 32.4738 48.4218 32.4738 47.1451V43.379C32.4738 42.1023 31.4525 41.081 30.1758 41.081ZM29.8566 45.0386L28.197 46.443C28.0693 46.5068 27.9416 46.5706 27.814 46.5706H27.7502C27.5587 46.5706 27.431 46.4429 27.3033 46.3153L26.665 45.4216C26.4735 45.1663 26.5373 44.7195 26.8565 44.528C27.1757 44.3365 27.5587 44.4003 27.7502 44.7195L27.9416 45.0386L29.0906 44.0811C29.346 43.8258 29.729 43.8896 29.9843 44.145C30.112 44.4003 30.112 44.7833 29.8566 45.0386ZM26.5373 26.2718H44.8573C46.1978 26.2718 47.3468 25.1866 47.3468 23.7823V19.2502C47.3468 17.9097 46.2617 16.7607 44.8573 16.7607H26.5373C25.1968 16.7607 24.0479 17.8459 24.0479 19.2502V23.7823C24.1117 25.1228 25.1968 26.2718 26.5373 26.2718ZM30.1758 29.3996H26.4097C25.133 29.3996 24.1117 30.4209 24.1117 31.6976V35.4637C24.1117 36.7404 25.133 37.7617 26.4097 37.7617H30.1758C31.4525 37.7617 32.4738 36.7404 32.4738 35.4637V31.6976C32.4738 30.4209 31.4525 29.3996 30.1758 29.3996ZM29.8566 33.3572L28.197 34.7616C28.0693 34.8892 27.9416 34.8892 27.814 34.8892H27.7502C27.5587 34.8892 27.431 34.7616 27.3033 34.6339L26.665 33.7402C26.4735 33.4211 26.5373 33.0381 26.8565 32.8466C27.1757 32.6551 27.5587 32.7189 27.7502 33.0381L27.9416 33.3572L29.0906 32.3997C29.346 32.2082 29.729 32.2082 29.9843 32.4636C30.112 32.7189 30.112 33.1019 29.8566 33.3572ZM46.7085 42.8045H35.3463C34.9633 42.8045 34.7079 43.0598 34.7079 43.4428C34.7079 43.8258 34.9633 44.0811 35.3463 44.0811H46.7085C47.0915 44.0811 47.3468 43.8258 47.3468 43.4428C47.3468 43.0598 47.0915 42.8045 46.7085 42.8045ZM42.2402 46.443H35.3463C34.9633 46.443 34.7079 46.6983 34.7079 47.0813C34.7079 47.4643 34.9633 47.7196 35.3463 47.7196H42.2402C42.6232 47.7196 42.8785 47.4643 42.8785 47.0813C42.8785 46.6983 42.5594 46.443 42.2402 46.443Z" fill="white"/>
<defs>
<radialGradient id="paint0_radial_969_453" cx="0" cy="0" r="1" gradientUnits="userSpaceOnUse" gradientTransform="translate(17.4537 13.2407) rotate(45) scale(48.5154 53.906)">
<stop stop-color="white"/>
<stop offset="0.654854" stop-color="white" stop-opacity="0.645125"/>
<stop offset="1" stop-color="white" stop-opacity="0.49"/>
</radialGradient>
</defs>
</svg>
