<svg width="42" height="41" viewBox="0 0 42 41" fill="none" xmlns="http://www.w3.org/2000/svg">
<g id="startup 1" clip-path="url(#clip0_1_1147)">
<g id="Group">
<g id="Group_2">
<path id="Vector" d="M19.8663 19.4868C20.1804 19.1737 20.6891 19.1737 21.0032 19.4868C21.3166 19.7991 21.3166 20.306 21.0032 20.6191C20.6891 20.9314 20.1804 20.9314 19.8663 20.6191C19.5529 20.306 19.5529 19.7991 19.8663 19.4868Z" fill="#0073C6"/>
</g>
</g>
<g id="Group_3">
<g id="Group_4">
<path id="Vector_2" d="M9.63962 9.29461C11.2097 7.72996 13.7514 7.72988 15.3216 9.29461C16.8876 10.8552 16.8877 13.3953 15.3214 14.9572C13.7548 16.5175 11.206 16.5181 9.63962 14.9571C8.06969 13.3925 8.06937 10.8594 9.63962 9.29461ZM10.776 13.8245C11.7155 14.761 13.245 14.761 14.185 13.8247C15.1247 12.8876 15.1248 11.3634 14.1852 10.4271C13.2432 9.48832 11.7181 9.48816 10.776 10.4271C9.83399 11.3657 9.83383 12.8857 10.776 13.8245Z" fill="#0073C6"/>
</g>
</g>
<g id="Group_5">
<g id="Group_6">
<path id="Vector_3" d="M0.549419 0.234556C0.707233 0.0773632 0.922577 -0.00783979 1.14644 0.000568394C1.32812 0.00705471 5.6539 0.180343 10.7961 1.99163C14.9166 3.44152 18.3511 5.51738 21.0042 8.16156C21.5988 8.75405 22.1773 9.38235 22.7309 10.0351C25.3542 8.49612 27.4564 8.97867 28.7854 9.68744C31.8453 11.3194 33.7393 15.7506 33.7393 18.9201C33.739 19.2439 33.5432 19.536 33.243 19.6599C33.1436 19.701 33.0391 19.7209 32.9357 19.7209C32.7265 19.7209 32.521 19.6395 32.3673 19.4863C30.7536 17.8781 28.7632 17.9787 28.113 18.0639L27.8316 18.3444C28.3854 19.6576 28.8315 20.9635 29.1587 22.2337C29.2768 22.6933 29.2369 23.1797 29.0614 23.6246C29.835 23.9799 30.5814 24.5016 31.2313 25.1493C33.2996 27.2107 33.7197 32.2343 33.7365 32.4471C33.755 32.6807 33.67 32.9107 33.5037 33.0764C33.3524 33.2271 33.1478 33.3109 32.9357 33.3109C32.9146 33.3109 32.8935 33.3101 32.8723 33.3084C32.6588 33.2917 27.6177 32.8731 25.5494 30.8119C24.8997 30.1644 24.3763 29.4207 24.0198 28.6498C23.5472 28.835 23.0607 28.8579 22.6233 28.7462C21.3494 28.4202 20.0391 27.9757 18.7212 27.4238L18.4398 27.7042C18.3544 28.3523 18.2534 30.3359 19.8671 31.9439C20.0968 32.1729 20.1656 32.5174 20.0412 32.8165C19.9169 33.1158 19.6239 33.3108 19.2989 33.3108C16.1186 33.3108 11.6722 31.4233 10.0347 28.3739C9.32345 27.0496 8.83925 24.9546 10.3835 22.3402C9.72883 21.7887 9.0983 21.2122 8.50353 20.6194C5.85029 17.9753 3.76739 14.5525 2.31252 10.4464C0.494942 5.32159 0.321136 1.01051 0.314629 0.829536C0.306595 0.607319 0.391689 0.391829 0.549419 0.234556ZM31.9427 17.1977C31.4436 14.7903 29.9938 12.1486 28.0267 11.0995C26.7123 10.3985 25.2755 10.4672 23.7478 11.3005C25.0493 13.0064 26.1807 14.8441 27.1238 16.7848C27.1358 16.7775 27.2804 16.5962 27.5491 16.5359C27.6596 16.511 29.7857 16.0552 31.9427 17.1977ZM26.6857 29.6793C27.7906 30.7804 30.3824 31.3611 32.0205 31.5982C31.7825 29.9656 31.1997 27.3828 30.0949 26.2818C29.4762 25.6652 28.7588 25.1977 28.0378 24.9344L25.3337 27.6292C25.5979 28.3478 26.0669 29.0627 26.6857 29.6793ZM23.0225 27.1947C23.255 27.2541 23.5243 27.1669 23.7246 26.9677C24.7641 25.9317 25.1708 25.5265 25.2984 25.3994C25.5324 25.1662 26.1062 24.5944 27.3736 23.3312C27.574 23.1311 27.6614 22.8628 27.602 22.6314C27.3446 21.6325 27.008 20.6077 26.5987 19.573L19.954 26.195C20.9923 26.603 22.0205 26.9384 23.0225 27.1947ZM11.4514 27.6182C12.5041 29.5784 15.1548 31.0233 17.5704 31.5207C16.8002 30.0763 16.6304 28.2377 16.9118 27.1227C16.9771 26.8638 17.1467 26.7336 17.1562 26.7183C15.209 25.7784 13.365 24.6508 11.6531 23.3538C10.8169 24.8764 10.748 26.3084 11.4514 27.6182ZM9.63972 19.487C10.3638 20.2085 11.1434 20.9056 11.9571 21.5588C13.913 23.1283 16.0658 24.4577 18.3626 25.5161L25.9174 17.9873C24.8555 15.6982 23.5214 13.5527 21.9467 11.6037C21.2907 10.7923 20.5913 10.0152 19.8676 9.29402C17.4871 6.92163 14.4149 5.03355 10.7338 3.67447L4.00089 10.3844C5.36448 14.0528 7.25903 17.1145 9.63972 19.487ZM3.42275 8.69544L9.03908 3.09831C5.97917 2.15114 3.31717 1.79648 1.98846 1.66899C2.11646 2.9934 2.47242 5.64631 3.42275 8.69544Z" fill="#0073C6"/>
</g>
</g>
<g id="Group_7">
<g id="Group_8">
<path id="Vector_4" d="M22.1392 33.0762C22.4531 32.7635 22.9619 32.7637 23.2756 33.0764L25.548 35.3418C25.8617 35.6546 25.8616 36.1617 25.5478 36.4743C25.2339 36.7869 24.7251 36.7869 24.4114 36.4741L22.139 34.2087C21.8253 33.8959 21.8254 33.3889 22.1392 33.0762Z" fill="#0073C6"/>
</g>
</g>
<g id="Group_9">
<g id="Group_10">
<path id="Vector_5" d="M33.5025 21.7512C33.8162 21.4384 34.3249 21.4384 34.6388 21.751L36.912 24.0157C37.2259 24.3283 37.2259 24.8353 36.9122 25.1481C36.5986 25.4607 36.0899 25.4611 35.7759 25.1483L33.5027 22.8837C33.1889 22.571 33.1888 22.064 33.5025 21.7512Z" fill="#0073C6"/>
</g>
</g>
<g id="Group_11">
<g id="Group_12">
<path id="Vector_6" d="M27.8209 34.2091C28.1345 33.8964 28.6434 33.8964 28.9572 34.2091L34.4003 39.6327C34.7142 39.9455 34.7142 40.4525 34.4004 40.7652C34.0868 41.0779 33.5779 41.0781 33.2641 40.7653L27.821 35.3416C27.5071 35.0289 27.5071 34.5219 27.8209 34.2091Z" fill="#0073C6"/>
</g>
</g>
<g id="Group_13">
<g id="Group_14">
<path id="Vector_7" d="M34.2496 34.2091C34.5633 33.8964 35.0722 33.8964 35.386 34.2091L40.829 39.6327C41.1429 39.9455 41.1429 40.4525 40.8291 40.7652C40.5155 41.0779 40.0066 41.0781 39.6928 40.7653L34.2497 35.3416C33.9358 35.0289 33.9358 34.5219 34.2496 34.2091Z" fill="#0073C6"/>
</g>
</g>
<g id="Group_15">
<g id="Group_16">
<path id="Vector_8" d="M34.6401 27.4141C34.9538 27.1015 35.4627 27.1015 35.7765 27.4142L41.2188 32.8387C41.5326 33.1515 41.5326 33.6585 41.2187 33.9712C40.9049 34.2839 40.3961 34.2839 40.0824 33.9712L34.6401 28.5467C34.3263 28.2339 34.3263 27.7269 34.6401 27.4141Z" fill="#0073C6"/>
</g>
</g>
<g id="Group_17">
<g id="Group_18">
<path id="Vector_9" d="M16.4579 16.089C16.7717 15.7763 17.2804 15.7763 17.5943 16.089L18.7305 17.2213C19.0443 17.534 19.0443 18.0411 18.7305 18.3539C18.4166 18.6666 17.9079 18.6666 17.5941 18.3539L16.4579 17.2216C16.1441 16.9089 16.1441 16.4018 16.4579 16.089Z" fill="#0073C6"/>
</g>
</g>
</g>
<defs>
<clipPath id="clip0_1_1147">
<rect width="41.1407" height="41" fill="white" transform="matrix(-1 0 0 1 41.4541 0)"/>
</clipPath>
</defs>
</svg>
