<svg width="34" height="33" viewBox="0 0 34 33" fill="none" xmlns="http://www.w3.org/2000/svg">
<g id="immersive 1" clip-path="url(#clip0_1_1177)">
<path id="Vector" d="M16.3041 16.5C15.9233 16.5 15.6143 16.192 15.6143 15.8125V8.9375C15.6143 8.558 15.9233 8.25 16.3041 8.25H18.3737C19.8955 8.25 21.1331 9.48337 21.1331 11C21.1331 12.5166 19.8955 13.75 18.3737 13.75H16.994V15.8125C16.994 16.192 16.6849 16.5 16.3041 16.5ZM16.994 12.375H18.3737C19.1353 12.375 19.7534 11.7576 19.7534 11C19.7534 10.2424 19.1353 9.625 18.3737 9.625H16.994V12.375Z" fill="#B50097"/>
<path id="Vector_2" d="M20.4438 16.4999C20.2672 16.4999 20.0906 16.4326 19.9554 16.2992L17.1959 13.5492C16.9269 13.2811 16.9269 12.8452 17.1959 12.5771C17.465 12.3089 17.9023 12.3089 18.1714 12.5771L20.9308 15.3271C21.1999 15.5952 21.1999 16.0311 20.9308 16.2992C20.797 16.4326 20.6204 16.4999 20.4438 16.4999Z" fill="#B50097"/>
<path id="Vector_3" d="M10.0951 16.4996C9.79019 16.4996 9.52253 16.3002 9.43423 16.0101L7.36465 9.1351C7.25427 8.7721 7.46123 8.38847 7.82685 8.27847C8.1911 8.17122 8.57604 8.3761 8.68642 8.7391L10.0951 13.4196L11.5038 8.74047C11.6128 8.3761 12.0005 8.1726 12.362 8.27985C12.7276 8.38985 12.9346 8.7721 12.8242 9.13648L10.7546 16.0115C10.6677 16.3002 10.4 16.4996 10.0951 16.4996Z" fill="#B50097"/>
<path id="Vector_4" d="M25.9622 12.375C24.8211 12.375 23.8926 11.4496 23.8926 10.3125C23.8926 9.17537 24.8211 8.25 25.9622 8.25C27.1032 8.25 28.0317 9.17537 28.0317 10.3125C28.0317 11.4496 27.1032 12.375 25.9622 12.375ZM25.9622 9.625C25.5827 9.625 25.2723 9.933 25.2723 10.3125C25.2723 10.692 25.5827 11 25.9622 11C26.3416 11 26.652 10.692 26.652 10.3125C26.652 9.933 26.3416 9.625 25.9622 9.625Z" fill="#B50097"/>
<path id="Vector_5" d="M30.1014 23.375H21.3678C21.0712 23.375 20.8076 23.1853 20.7124 22.9048L20.1067 21.0898C20.0115 20.8161 19.7453 20.625 19.45 20.625H14.5382C14.2429 20.625 13.978 20.8161 13.8773 21.1008L13.2744 22.9061C13.1806 23.1853 12.917 23.375 12.6204 23.375H3.88679C1.98416 23.375 0.4375 21.8323 0.4375 19.9375V7.5625C0.4375 5.66775 1.98416 4.125 3.88679 4.125H30.1014C32.004 4.125 33.5507 5.66775 33.5507 7.5625V19.9375C33.5507 21.8323 32.004 23.375 30.1014 23.375ZM21.8645 22H30.1014C31.2424 22 32.171 21.0746 32.171 19.9375V7.5625C32.171 6.42538 31.2424 5.5 30.1014 5.5H3.88679C2.74577 5.5 1.81722 6.42538 1.81722 7.5625V19.9375C1.81722 21.0746 2.74577 22 3.88679 22H12.1237L12.5721 20.6553C12.8701 19.811 13.6579 19.25 14.5382 19.25H19.4514C20.3316 19.25 21.1195 19.811 21.4133 20.6456L21.8645 22Z" fill="#B50097"/>
<path id="Vector_6" d="M28.7212 5.5C28.3404 5.5 28.0314 5.192 28.0314 4.8125V3.4375C28.0314 2.30037 27.1028 1.375 25.9618 1.375H8.02546C6.88444 1.375 5.95589 2.30037 5.95589 3.4375V4.8125C5.95589 5.192 5.64683 5.5 5.26603 5.5C4.88523 5.5 4.57617 5.192 4.57617 4.8125V3.4375C4.57617 1.54275 6.12283 0 8.02546 0H25.9618C27.8644 0 29.4111 1.54275 29.4111 3.4375V4.8125C29.4111 5.192 29.102 5.5 28.7212 5.5Z" fill="#B50097"/>
<path id="Vector_7" d="M15.6142 33.0005C15.4059 33.0005 15.1976 32.9056 15.0624 32.7255C14.8347 32.4216 14.8968 31.9912 15.2017 31.763L17.2257 30.2505L15.2003 28.738C14.8954 28.5097 14.8333 28.0793 15.061 27.7755C15.2914 27.4702 15.7232 27.4125 16.0268 27.638L18.7862 29.7005C18.96 29.8297 19.0621 30.0346 19.0621 30.2505C19.0621 30.4663 18.96 30.6712 18.7862 30.8005L16.0268 32.863C15.904 32.9551 15.7577 33.0005 15.6142 33.0005Z" fill="#B50097"/>
<path id="Vector_8" d="M16.9941 30.9375C15.5799 30.9375 14.1381 30.8852 12.7101 30.7848C6.7773 30.3586 0.4375 28.9107 0.4375 26.125C0.4375 25.8348 0.513384 25.5365 0.662394 25.2395C0.833479 24.8985 1.25015 24.7623 1.58956 24.9328C1.92897 25.1033 2.06695 25.5158 1.89724 25.8555C1.84481 25.96 1.81722 26.0507 1.81722 26.125C1.81722 27.1328 5.30928 28.875 12.808 29.414C14.214 29.513 15.6102 29.6106 17.0231 29.5625C17.3487 29.5625 17.6619 29.5625 17.9737 29.5501C18.3724 29.5336 18.676 29.8292 18.6925 30.2087C18.7077 30.5882 18.4111 30.9086 18.0316 30.9237C17.6895 30.9375 17.3487 30.9375 16.9941 30.9375Z" fill="#B50097"/>
<path id="Vector_9" d="M21.8081 30.7308C21.4535 30.7308 21.1513 30.4586 21.1224 30.0997C21.092 29.7216 21.3735 29.3888 21.7529 29.3572C28.8612 28.7783 32.1711 27.0857 32.1711 26.1246C32.1711 26.0503 32.1435 25.9596 32.0911 25.8551C31.9214 25.5155 32.0594 25.103 32.3988 24.9325C32.7368 24.7606 33.1535 24.8981 33.326 25.2391C33.475 25.5361 33.5508 25.8345 33.5508 26.1246C33.5508 29.5112 24.6075 30.5053 21.866 30.7295C21.8481 30.7308 21.8274 30.7308 21.8081 30.7308Z" fill="#B50097"/>
</g>
<defs>
<clipPath id="clip0_1_1177">
<rect width="33.1132" height="33" fill="white" transform="translate(0.4375)"/>
</clipPath>
</defs>
</svg>
