<svg width="62" height="62" viewBox="0 0 62 62" fill="none" xmlns="http://www.w3.org/2000/svg">
<g id="Group 1000001863">
<circle id="Ellipse 1146" cx="31" cy="31" r="31" fill="#6E00FA"/>
<g id="Group">
<path id="Vector" d="M36.0136 38.4901C36.0136 38.978 36.0173 39.3936 36.0136 39.8092C35.9951 41.735 34.7402 42.9873 32.8126 42.9929C30.7941 42.9984 28.7756 42.9854 26.7571 43.0059C26.4847 43.0077 26.1733 43.0986 25.9453 43.2489C24.2104 44.3843 22.4885 45.5402 20.7684 46.6997C20.3847 46.9595 20.0029 47.1209 19.5562 46.8945C19.0891 46.6589 19.002 46.2359 19.0076 45.7572C19.0187 44.8611 19.0113 43.9669 19.0113 43.0151C18.331 43.0151 17.6916 43.0263 17.0521 43.0133C15.4803 42.978 14.283 41.952 14.0364 40.4326C14.0031 40.2266 14.0031 40.0133 14.0031 39.8036C13.9994 36.6033 13.9994 33.4047 14.0012 30.2062C14.0012 28.2749 15.2375 27.0133 17.1689 26.991C18.4163 26.9762 19.6637 26.9873 20.9111 26.9873C21.0631 26.9873 21.2151 26.9873 21.4412 26.9873C21.4412 26.7944 21.4412 26.6329 21.4412 26.4715C21.4412 24.5495 21.432 22.6274 21.4449 20.7053C21.4579 18.8166 22.5923 17.401 24.3568 17.0615C24.6571 17.004 24.9703 17.0021 25.278 17.0021C31.9081 17.0003 38.54 16.9984 45.1718 17.0021C47.5258 17.0021 48.9957 18.4808 48.9975 20.8407C48.9975 24.9929 49.0049 29.1469 48.9938 33.299C48.9882 35.3342 47.4776 36.8537 45.4388 36.8964C44.6547 36.9131 43.8688 36.9001 43.0829 36.9001C42.9458 36.9001 42.8068 36.9001 42.6121 36.9001C42.6121 37.0856 42.6121 37.2341 42.6121 37.3825C42.6121 38.5328 42.6029 39.683 42.6158 40.8333C42.6214 41.2934 42.4935 41.6645 42.0765 41.8908C41.6668 42.1153 41.298 41.991 40.9366 41.7498C39.4463 40.7517 37.9524 39.7591 36.4585 38.7647C36.3361 38.683 36.2064 38.6088 36.0136 38.4901ZM40.5918 39.1339C40.5918 38.0912 40.5918 37.1413 40.5918 36.1914C40.5937 35.2452 40.9403 34.8945 41.88 34.8927C43.057 34.8908 44.234 34.9038 45.4109 34.8871C46.3414 34.8723 46.9772 34.2211 46.9772 33.3213C46.9772 29.1283 46.9772 24.9335 46.9753 20.7405C46.9753 19.6162 46.3581 18.9929 45.2349 18.991C38.5492 18.9892 31.8636 18.9892 25.1798 18.991C24.0306 18.991 23.4227 19.6107 23.4208 20.7647C23.4208 24.8741 23.4208 28.9836 23.4208 33.0931C23.4208 34.3027 24.0121 34.8927 25.2317 34.8927C27.6839 34.8945 30.138 34.9465 32.5883 34.8704C33.7486 34.8333 34.6883 35.1413 35.6188 35.8073C37.2128 36.9465 38.8736 37.991 40.5918 39.1339ZM21.4412 29.0671C21.3486 29.0392 21.3096 29.0151 21.2689 29.0151C19.8546 29.0133 18.4385 28.9966 17.0243 29.0188C16.3496 29.03 16.0123 29.4344 16.0123 30.1487C16.0104 33.388 16.0104 36.6274 16.0123 39.8667C16.0123 40.6274 16.3904 41.0059 17.1448 41.0096C18.0419 41.0151 18.939 41.0077 19.8361 41.0114C20.6183 41.0151 20.989 41.3862 20.9927 42.1728C20.9964 42.7981 20.9927 43.4214 20.9927 44.119C21.1725 44.0077 21.2893 43.9409 21.4005 43.8649C22.6201 43.043 23.8471 42.2322 25.0556 41.3936C25.4541 41.1172 25.8545 40.9892 26.3419 40.9929C28.5143 41.0114 30.6866 41.004 32.8571 41.0003C33.604 40.9984 33.997 40.607 34.0062 39.8593C34.0155 39.1302 34.0081 38.401 34.0081 37.6719C34.0081 37.0021 33.9062 36.8982 33.2333 36.8982C30.5568 36.8982 27.8804 36.9038 25.2039 36.8964C22.9333 36.8908 21.4524 35.401 21.4412 33.1227C21.4357 31.9168 21.4394 30.7109 21.4394 29.5049C21.4412 29.3565 21.4412 29.2062 21.4412 29.0671Z" fill="white"/>
<path id="Vector_2" d="M35.0017 32.0024C33.0684 32.0024 31.1334 32.0061 29.2001 31.9969C28.9833 31.995 28.746 31.9635 28.5514 31.8725C28.1548 31.6889 27.9954 31.3401 28.0287 30.9059C28.0602 30.4959 28.3271 30.1601 28.7312 30.0618C28.9314 30.0135 29.1464 30.0043 29.3558 30.0043C33.1259 30.0006 36.8941 30.0024 40.6642 30.0024C41.5242 30.0024 41.9913 30.3531 41.9968 30.9969C42.0024 31.6369 41.5242 32.0024 40.6753 32.0024C38.7847 32.0024 36.8941 32.0024 35.0017 32.0024Z" fill="white"/>
<path id="Vector_3" d="M35.0347 26.0147C37.0106 26.0147 38.9846 26.011 40.9604 26.0166C41.5128 26.0184 41.876 26.3227 41.978 26.831C42.0651 27.2726 41.8093 27.7698 41.3774 27.9145C41.1717 27.9832 40.9363 27.9924 40.7157 27.9924C38.5434 27.998 36.3729 27.9961 34.2006 27.9961C32.5195 27.9961 30.8383 27.9999 29.1572 27.9943C28.5233 27.9924 28.1266 27.6974 28.0414 27.1947C27.9265 26.5212 28.3732 26.0184 29.109 26.0166C31.0849 26.0091 33.0589 26.0147 35.0347 26.0147Z" fill="white"/>
<path id="Vector_4" d="M32.9665 23.9932C31.6783 23.9932 30.3882 24.0006 29.1 23.9914C28.3642 23.9858 27.9045 23.47 28.025 22.8133C28.1121 22.3346 28.4809 21.9988 29.0018 21.9969C31.6634 21.9877 34.3251 21.9858 36.9867 21.9969C37.5669 21.9988 37.9747 22.4366 37.9784 22.9821C37.9821 23.5591 37.5558 23.9821 36.9182 23.9895C35.6003 24.0006 34.2843 23.9932 32.9665 23.9932Z" fill="white"/>
</g>
</g>
</svg>
