<svg width="134" height="50" viewBox="0 0 134 50" fill="none" xmlns="http://www.w3.org/2000/svg">
<g id="Group 1000001459">
<g id="XMLID_1_">
<g id="XMLID_2_">
<path id="XMLID_16_" d="M59.88 2.50411C70.7425 -3.13245 84.1913 1.06914 89.8571 11.8698C95.5259 22.6705 91.3003 36.043 80.4379 41.6766C77.017 43.4511 73.1863 44.3132 69.3557 44.1715L69.0112 44.1597L70.1693 38.6117L70.4039 38.6088C73.0022 38.5733 75.5026 37.9415 77.8395 36.7309C81.7712 34.6907 84.6694 31.2508 85.9997 27.0434C87.33 22.8359 86.9321 18.3626 84.8802 14.4534C82.8283 10.5441 79.3688 7.66234 75.1373 6.33957C70.9058 5.01679 66.41 5.41245 62.4754 7.45271C58.5438 9.49297 55.6455 12.9328 54.3152 17.1403C52.9849 21.3477 53.3828 25.818 55.4347 29.7302C56.7621 32.2606 58.719 34.4042 61.0946 35.9337L61.3054 36.0695L59.0189 41.21L58.7338 41.0417C55.2239 38.9542 52.3613 35.9367 50.4608 32.3108C44.792 21.5101 49.0176 8.13771 59.88 2.50411Z" fill="white"/>
<path id="XMLID_15_" d="M64.7235 11.7277C70.4783 8.74259 77.5784 10.96 80.5806 16.6822C83.5827 22.4044 81.3526 29.4641 75.5978 32.4492C74.2793 33.1342 72.8896 33.5446 71.4969 33.7011L72.7441 27.725C72.845 27.6807 72.943 27.6305 73.044 27.5803C76.0877 26.0007 77.2725 22.2508 75.6839 19.2244C75.4344 18.749 75.1315 18.3209 74.7871 17.94C74.2229 17.32 73.5488 16.8298 72.8064 16.4844C71.9215 16.071 70.9416 15.8673 69.9557 15.8968C69.047 15.9234 68.1354 16.1507 67.2772 16.5966C64.2335 18.1762 63.0487 21.9261 64.6374 24.9525C64.8571 25.3718 65.1214 25.7556 65.4183 26.104L63.0606 31.401C61.7154 30.3912 60.5721 29.0744 59.7407 27.4917C56.7385 21.7755 58.9686 14.7157 64.7235 11.7277Z" fill="#25D4E3"/>
<path id="XMLID_14_" d="M66.5439 50L71.8533 22.1302L69.0887 21.2681L57.5166 47.1803L66.5439 50Z" fill="white"/>
</g>
<g id="XMLID_3_">
<path id="XMLID_19_" d="M89.6641 38.0179V36.2168H91.621V38.0179H89.6641ZM89.6641 46.365V39.01H91.621V46.365H89.6641Z" fill="#25D4E3"/>
<path id="XMLID_23_" d="M101.857 45.0809C102.362 45.4411 102.911 45.7246 103.505 45.9342L102.748 47.381C102.448 47.2954 102.145 47.1684 101.836 47.0031C101.753 46.9558 101.296 46.6576 100.467 46.1025C99.7961 46.3948 99.0567 46.5425 98.246 46.5425C96.6306 46.5425 95.3834 46.0641 94.5015 45.1045C93.6492 44.1804 93.2246 42.9107 93.2246 41.2898C93.2246 39.6894 93.6463 38.4257 94.4926 37.4986C95.3686 36.5301 96.6009 36.0459 98.1896 36.0459C99.7664 36.0459 100.993 36.5331 101.866 37.5075C102.7 38.4405 103.119 39.7012 103.119 41.2927C103.119 42.1696 102.994 42.9403 102.748 43.6076C102.561 44.1095 102.267 44.6026 101.857 45.0809ZM100.203 43.9176C100.729 43.3034 100.993 42.4265 100.993 41.2868C100.993 40.277 100.785 39.465 100.366 38.8568C99.8763 38.1482 99.1458 37.7968 98.1777 37.7968C97.2097 37.7968 96.4792 38.1511 95.9892 38.8568C95.5675 39.468 95.3537 40.277 95.3537 41.2868C95.3537 42.2877 95.5586 43.0997 95.9654 43.7257C96.4495 44.4638 97.1681 44.8329 98.1154 44.8329C98.4093 44.8329 98.6914 44.7827 98.9587 44.6853C98.54 44.4136 98.1154 44.201 97.6818 44.0475L98.2609 42.8783C98.9349 43.1115 99.5823 43.457 100.203 43.9176Z" fill="#25D4E3"/>
<path id="XMLID_26_" d="M109.586 46.3652V45.2668C109.007 46.1142 108.194 46.5364 107.142 46.5364C106.05 46.5364 105.316 46.1231 104.945 45.2993C104.77 44.9036 104.681 44.3604 104.681 43.6694V39.0161H106.638V42.3939C106.638 43.2206 106.641 43.6547 106.646 43.7019C106.697 44.2718 106.863 44.6527 107.142 44.8475C107.329 44.9863 107.567 45.0542 107.861 45.0542C108.176 45.0542 108.467 44.9686 108.74 44.7973C109.013 44.6261 109.197 44.3928 109.301 44.1005C109.399 43.8348 109.45 43.1734 109.45 42.1164V39.0161H111.407V46.3711H109.586V46.3652Z" fill="#25D4E3"/>
<path id="XMLID_28_" d="M113.423 38.0179V36.2168H115.38V38.0179H113.423ZM113.423 46.365V39.01H115.38V46.365H113.423Z" fill="#25D4E3"/>
<path id="XMLID_31_" d="M123.836 41.1862L121.903 41.5316C121.776 40.761 121.33 40.3772 120.573 40.3772C119.504 40.3772 118.972 41.1035 118.972 42.5532C118.972 44.1477 119.513 44.9449 120.597 44.9449C121.366 44.9449 121.838 44.4784 122.013 43.5453L123.931 43.8672C123.531 45.6417 122.387 46.5275 120.505 46.5275C119.37 46.5275 118.488 46.1672 117.859 45.4439C117.256 44.7559 116.953 43.8376 116.953 42.6891C116.953 41.5257 117.256 40.6016 117.859 39.9195C118.497 39.202 119.394 38.8418 120.543 38.8418C122.277 38.8477 123.376 39.6272 123.836 41.1862Z" fill="#25D4E3"/>
<path id="XMLID_33_" d="M125.245 46.3654V36.2202H127.202V41.6058L129.491 39.0134H131.906L129.376 41.6973L132.084 46.3654H129.973L128.117 43.0644L127.205 44.0092V46.3625H125.245V46.3654Z" fill="#25D4E3"/>
</g>
<path id="XMLID_20_" d="M0 16.2752C0 14.3058 0.403852 12.044 0.953208 10.5471L6.12607 9.70852C5.354 11.3856 4.87888 13.795 4.87888 15.7289C4.87888 20.8724 7.11788 23.2817 13.9804 23.2817H21.6506V1.3526H26.4938V23.2817H30.1998V27.0758H13.4667C3.48619 27.0758 0 22.951 0 16.2752ZM9.24701 9.30697C10.0191 9.30697 10.7882 9.34239 11.3019 9.45164C10.8624 9.23315 10.6041 8.57471 10.6041 8.02847C10.6041 5.98526 12.071 3.94205 15.9254 3.94205C16.9172 3.94205 17.8348 4.08673 18.0902 4.12511L17.6507 6.86219C17.4666 6.82676 16.6589 6.67913 15.8155 6.67913C14.6782 6.67913 14.0546 7.18994 14.0546 7.91923C14.0546 8.72235 14.7138 9.30697 16.5876 9.30697H18.6781V12.044H9.24701V9.30697ZM29.6118 23.2817H36.5099V9.92702H41.3532V27.0758H29.6118V23.2817ZM32.7327 35.0302C31.3757 35.0302 30.3096 33.9348 30.3096 32.55C30.3096 31.2007 31.3727 30.0698 32.7327 30.0698C34.1284 30.0698 35.1915 31.1652 35.1915 32.55C35.1915 33.8994 34.1254 35.0302 32.7327 35.0302ZM38.8232 35.0302C37.4661 35.0302 36.4001 33.9348 36.4001 32.55C36.4001 31.2007 37.4631 30.0698 38.8232 30.0698C40.1832 30.0698 41.2463 31.1652 41.2463 32.55C41.2463 33.8994 40.1802 35.0302 38.8232 35.0302ZM88.8413 23.2817H93.2095V27.0758H88.8413V23.2817ZM92.8056 23.2817H103.704C103.484 17.6275 100.547 14.3412 94.712 12.9918V9.45164L109.245 0.401855V5.18215L100.292 10.5471C104.915 12.6257 108.033 16.2751 108.401 23.2817H111.374V27.0758H92.8056V23.2817ZM110.825 23.2817H117.723V9.92702H122.566V27.0758H110.825V23.2817ZM113.942 35.0302C112.585 35.0302 111.519 33.9348 111.519 32.55C111.519 31.2007 112.582 30.0698 113.942 30.0698C115.338 30.0698 116.401 31.1652 116.401 32.55C116.401 33.8994 115.338 35.0302 113.942 35.0302ZM120.033 35.0302C118.676 35.0302 117.61 33.9348 117.61 32.55C117.61 31.2007 118.673 30.0698 120.033 30.0698C121.39 30.0698 122.456 31.1652 122.456 32.55C122.456 33.8994 121.393 35.0302 120.033 35.0302ZM128.401 1.3526H133.244V27.0758H128.401V1.3526Z" fill="white"/>
</g>
</g>
</svg>
