<svg width="64" height="64" viewBox="0 0 64 64" fill="none" xmlns="http://www.w3.org/2000/svg">
<g id="&#216;&#170;&#217;&#134;&#216;&#168;&#217;&#138;&#217;&#135;">
<g id="Vector">
<path d="M32.0002 5.33301C26.726 5.33301 21.5703 6.89698 17.185 9.82715C12.7997 12.7573 9.38172 16.9221 7.36339 21.7948C5.34505 26.6675 4.81696 32.0293 5.8459 37.2021C6.87484 42.3749 9.41459 47.1265 13.144 50.8559C16.8734 54.5853 21.6249 57.125 26.7978 58.154C31.9706 59.1829 37.3324 58.6548 42.2051 56.6365C47.0778 54.6181 51.2425 51.2002 54.1727 46.8149C57.1029 42.4296 58.6668 37.2738 58.6668 31.9997C58.6668 28.4978 57.9771 25.0301 56.637 21.7948C55.2968 18.5594 53.3326 15.6197 50.8564 13.1435C48.3801 10.6673 45.4404 8.70301 42.2051 7.36289C38.9697 6.02276 35.5021 5.33301 32.0002 5.33301ZM32.0002 53.333C27.7808 53.333 23.6563 52.0818 20.148 49.7377C16.6398 47.3936 13.9054 44.0617 12.2907 40.1636C10.6761 36.2654 10.2536 31.976 11.0768 27.8377C11.8999 23.6995 13.9317 19.8983 16.9152 16.9147C19.8988 13.9312 23.7 11.8994 27.8382 11.0763C31.9765 10.2531 36.2659 10.6756 40.1641 12.2902C44.0622 13.9049 47.3941 16.6393 49.7382 20.1475C52.0823 23.6558 53.3335 27.7803 53.3335 31.9997C53.3335 37.6576 51.0859 43.0838 47.0851 47.0846C43.0843 51.0854 37.6581 53.333 32.0002 53.333Z" fill="#FFBC1F"/>
<path d="M32.0002 45.333C33.4729 45.333 34.6668 44.1391 34.6668 42.6663C34.6668 41.1936 33.4729 39.9997 32.0002 39.9997C30.5274 39.9997 29.3335 41.1936 29.3335 42.6663C29.3335 44.1391 30.5274 45.333 32.0002 45.333Z" fill="#FFBC1F"/>
<path d="M32.0002 18.6663C31.2929 18.6663 30.6147 18.9473 30.1146 19.4474C29.6145 19.9475 29.3335 20.6258 29.3335 21.333V34.6663C29.3335 35.3736 29.6145 36.0519 30.1146 36.552C30.6147 37.0521 31.2929 37.333 32.0002 37.333C32.7074 37.333 33.3857 37.0521 33.8858 36.552C34.3859 36.0519 34.6668 35.3736 34.6668 34.6663V21.333C34.6668 20.6258 34.3859 19.9475 33.8858 19.4474C33.3857 18.9473 32.7074 18.6663 32.0002 18.6663Z" fill="#FFBC1F"/>
</g>
</g>
</svg>
